<?xml version="1.0" encoding="UTF-8"?>
<svg version="1.1" xmlns="http://www.w3.org/2000/svg" width="3000" height="3000">
<path d="M0 0 C2.97 0 5.94 0 9 0 C9 10.56 9 21.12 9 32 C9.99 32 10.98 32 12 32 C12 35.63 12 39.26 12 43 C12.99 43.33 13.98 43.66 15 44 C15 45.98 15 47.96 15 50 C15.66 50 16.32 50 17 50 C17.33 52.64 17.66 55.28 18 58 C18.66 58 19.32 58 20 58 C20.33 59.98 20.66 61.96 21 64 C21.66 64 22.32 64 23 64 C23.33 65.98 23.66 67.96 24 70 C24.66 70 25.32 70 26 70 C26 70.99 26 71.98 26 73 C26.99 73 27.98 73 29 73 C29.33 74.98 29.66 76.96 30 79 C30.66 79 31.32 79 32 79 C32 79.99 32 80.98 32 82 C32.99 82 33.98 82 35 82 C35.33 83.65 35.66 85.3 36 87 C36.66 87 37.32 87 38 87 C38 87.99 38 88.98 38 90 C38.99 90 39.98 90 41 90 C41 90.99 41 91.98 41 93 C41.99 93 42.98 93 44 93 C44 93.99 44 94.98 44 96 C44.99 96 45.98 96 47 96 C47 96.99 47 97.98 47 99 C47.99 99 48.98 99 50 99 C50 99.99 50 100.98 50 102 C50.99 102 51.98 102 53 102 C53 102.99 53 103.98 53 105 C53.99 105 54.98 105 56 105 C56 105.99 56 106.98 56 108 C57.65 108.33 59.3 108.66 61 109 C61 109.66 61 110.32 61 111 C61.99 111 62.98 111 64 111 C64 111.99 64 112.98 64 114 C65.32 114 66.64 114 68 114 C68 114.99 68 115.98 68 117 C69.65 117 71.3 117 73 117 C73 117.99 73 118.98 73 120 C74.98 120 76.96 120 79 120 C79 120.99 79 121.98 79 123 C79.99 123 80.98 123 82 123 C82 123.66 82 124.32 82 125 C84.97 125.495 84.97 125.495 88 126 C88 126.66 88 127.32 88 128 C89.9490625 128.185625 89.9490625 128.185625 91.9375 128.375 C94.15234375 128.5859375 94.15234375 128.5859375 96 129 C96.33 129.66 96.66 130.32 97 131 C100.02934491 131.65772428 100.02934491 131.65772428 103 132 C103 132.66 103 133.32 103 134 C106.63 134.33 110.26 134.66 114 135 C114 135.66 114 136.32 114 137 C131.82 137.495 131.82 137.495 150 138 C150 138.66 150 139.32 150 140 C150.99 140.33 151.98 140.66 153 141 C153 142.65 153 144.3 153 146 C151.68 146.33 150.36 146.66 149 147 C149 147.66 149 148.32 149 149 C133.655 149.495 133.655 149.495 118 150 C117.67 150.66 117.34 151.32 117 152 C113.04 152 109.08 152 105 152 C105 152.99 105 153.98 105 155 C102.36 155 99.72 155 97 155 C97 155.99 97 156.98 97 158 C94.03 158 91.06 158 88 158 C88 158.99 88 159.98 88 161 C86.02 161 84.04 161 82 161 C82 161.99 82 162.98 82 164 C80.35 164 78.7 164 77 164 C77 164.99 77 165.98 77 167 C75.68 167 74.36 167 73 167 C73 167.66 73 168.32 73 169 C68.64705882 173 68.64705882 173 65 173 C64.67 173.99 64.34 174.98 64 176 C63.34 176 62.68 176 62 176 C62 176.66 62 177.32 62 178 C61.01 178.33 60.02 178.66 59 179 C58.2575 179.7734375 58.2575 179.7734375 57.5 180.5625 C56 182 56 182 53 182 C53 182.99 53 183.98 53 185 C52.01 185 51.02 185 50 185 C50 185.99 50 186.98 50 188 C49.01 188 48.02 188 47 188 C46.67 189.65 46.34 191.3 46 193 C45.34 193 44.68 193 44 193 C44 193.99 44 194.98 44 196 C43.01 196 42.02 196 41 196 C41 196.99 41 197.98 41 199 C40.01 199 39.02 199 38 199 C38 199.99 38 200.98 38 202 C37.01 202 36.02 202 35 202 C35 202.99 35 203.98 35 205 C34.34 205 33.68 205 33 205 C32.67 206.98 32.34 208.96 32 211 C31.34 211 30.68 211 30 211 C29.814375 212.2065625 29.814375 212.2065625 29.625 213.4375 C29.41875 214.283125 29.2125 215.12875 29 216 C28.34 216.33 27.68 216.66 27 217 C26.34444881 219.52733235 26.34444881 219.52733235 26 222 C25.34 222 24.68 222 24 222 C23.67 223.98 23.34 225.96 23 228 C22.34 228 21.68 228 21 228 C20.67 229.98 20.34 231.96 20 234 C19.34 234 18.68 234 18 234 C18.0309375 235.423125 18.0309375 235.423125 18.0625 236.875 C18 240 18 240 17 242 C16.34 242 15.68 242 15 242 C15.0309375 243.6396875 15.0309375 243.6396875 15.0625 245.3125 C15 249 15 249 14 252 C13.34 252 12.68 252 12 252 C12.01740234 253.13888672 12.01740234 253.13888672 12.03515625 254.30078125 C12.04417969 255.29464844 12.05320312 256.28851562 12.0625 257.3125 C12.07410156 258.29863281 12.08570313 259.28476562 12.09765625 260.30078125 C12 263 12 263 11 266 C10.34 266 9.68 266 9 266 C9 274.91 9 283.82 9 293 C8.01 293 7.02 293 6 293 C6 293.99 6 294.98 6 296 C4.33388095 296.042721 2.66617115 296.04063832 1 296 C0 295 0 295 -0.11352539 292.49975586 C-0.10828857 291.41573486 -0.10305176 290.33171387 -0.09765625 289.21484375 C-0.09443359 288.04501953 -0.09121094 286.87519531 -0.08789062 285.66992188 C-0.07951172 284.43822266 -0.07113281 283.20652344 -0.0625 281.9375 C-0.05798828 280.70193359 -0.05347656 279.46636719 -0.04882812 278.19335938 C-0.03699608 275.12885883 -0.02051173 272.06445279 0 269 C-0.66 269 -1.32 269 -2 269 C-3.18681726 265.43954823 -3.09689832 262.56191663 -3.0625 258.8125 C-3.05347656 257.54019531 -3.04445313 256.26789063 -3.03515625 254.95703125 C-3.01775391 253.49330078 -3.01775391 253.49330078 -3 252 C-3.99 251.67 -4.98 251.34 -6 251 C-6 248.36 -6 245.72 -6 243 C-6.99 242.67 -7.98 242.34 -9 242 C-9 239.36 -9 236.72 -9 234 C-9.99 234 -10.98 234 -12 234 C-12 232.02 -12 230.04 -12 228 C-12.66 228 -13.32 228 -14 228 C-14.33 226.02 -14.66 224.04 -15 222 C-15.66 222 -16.32 222 -17 222 C-17.495 219.525 -17.495 219.525 -18 217 C-18.66 217 -19.32 217 -20 217 C-20.33 216.01 -20.66 215.02 -21 214 C-21.66 213.67 -22.32 213.34 -23 213 C-23.625 210.4375 -23.625 210.4375 -24 208 C-24.66 208 -25.32 208 -26 208 C-26 207.01 -26 206.02 -26 205 C-26.99 205 -27.98 205 -29 205 C-29.33 203.02 -29.66 201.04 -30 199 C-30.66 199 -31.32 199 -32 199 C-32 198.01 -32 197.02 -32 196 C-32.99 196 -33.98 196 -35 196 C-35 195.01 -35 194.02 -35 193 C-35.99 193 -36.98 193 -38 193 C-38 192.01 -38 191.02 -38 190 C-38.99 190 -39.98 190 -41 190 C-41 189.01 -41 188.02 -41 187 C-41.99 187 -42.98 187 -44 187 C-44 186.01 -44 185.02 -44 184 C-44.99 184 -45.98 184 -47 184 C-47 183.34 -47 182.68 -47 182 C-47.99 181.67 -48.98 181.34 -50 181 C-50 180.34 -50 179.68 -50 179 C-50.99 179 -51.98 179 -53 179 C-53 178.01 -53 177.02 -53 176 C-54.65 175.67 -56.3 175.34 -58 175 C-58 174.34 -58 173.68 -58 173 C-59.32 172.67 -60.64 172.34 -62 172 C-62 171.34 -62 170.68 -62 170 C-63.65 169.67 -65.3 169.34 -67 169 C-67 168.34 -67 167.68 -67 167 C-68.32 166.67 -69.64 166.34 -71 166 C-71 165.34 -71 164.68 -71 164 C-72.65 164 -74.3 164 -76 164 C-76 163.01 -76 162.02 -76 161 C-77.98 161 -79.96 161 -82 161 C-82 160.01 -82 159.02 -82 158 C-83.423125 158.0309375 -83.423125 158.0309375 -84.875 158.0625 C-88 158 -88 158 -90 157 C-90 156.34 -90 155.68 -90 155 C-92.31 155 -94.62 155 -97 155 C-97 154.01 -97 153.02 -97 152 C-100.96 152 -104.92 152 -109 152 C-109 151.34 -109 150.68 -109 150 C-125.83 149.505 -125.83 149.505 -143 149 C-143.33 146.36 -143.66 143.72 -144 141 C-143 140 -143 140 -140.77514648 139.88647461 C-139.81680908 139.89171143 -138.85847168 139.89694824 -137.87109375 139.90234375 C-136.31938477 139.90717773 -136.31938477 139.90717773 -134.73632812 139.91210938 C-133.64771484 139.92048828 -132.55910156 139.92886719 -131.4375 139.9375 C-129.7987793 139.94426758 -129.7987793 139.94426758 -128.12695312 139.95117188 C-125.41791505 139.96300174 -122.70898401 139.97948457 -120 140 C-120 139.34 -120 138.68 -120 138 C-114.39 137.67 -108.78 137.34 -103 137 C-103 136.34 -103 135.68 -103 135 C-100.03 134.67 -97.06 134.34 -94 134 C-94 133.34 -94 132.68 -94 132 C-93.030625 131.87625 -92.06125 131.7525 -91.0625 131.625 C-90.051875 131.41875 -89.04125 131.2125 -88 131 C-87.67 130.34 -87.34 129.68 -87 129 C-84.35139573 128.40644386 -81.70802678 128.25790731 -79 128 C-79 127.34 -79 126.68 -79 126 C-77.02 126 -75.04 126 -73 126 C-73 125.01 -73 124.02 -73 123 C-72.195625 122.87625 -71.39125 122.7525 -70.5625 122.625 C-69.2940625 122.315625 -69.2940625 122.315625 -68 122 C-67.67 121.34 -67.34 120.68 -67 120 C-66.01 120 -65.02 120 -64 120 C-64 119.01 -64 118.02 -64 117 C-62.35 117 -60.7 117 -59 117 C-59 116.01 -59 115.02 -59 114 C-57.68 114 -56.36 114 -55 114 C-55 113.01 -55 112.02 -55 111 C-53.35 111 -51.7 111 -50 111 C-50 110.01 -50 109.02 -50 108 C-49.01 108 -48.02 108 -47 108 C-47 107.01 -47 106.02 -47 105 C-46.01 105 -45.02 105 -44 105 C-44 104.01 -44 103.02 -44 102 C-43.01 102 -42.02 102 -41 102 C-41 101.01 -41 100.02 -41 99 C-40.01 99 -39.02 99 -38 99 C-38 98.01 -38 97.02 -38 96 C-37.01 96 -36.02 96 -35 96 C-35 95.01 -35 94.02 -35 93 C-34.01 93 -33.02 93 -32 93 C-32 92.01 -32 91.02 -32 90 C-31.01 90 -30.02 90 -29 90 C-29 88.35 -29 86.7 -29 85 C-28.01 85 -27.02 85 -26 85 C-26 84.01 -26 83.02 -26 82 C-25.34 81.67 -24.68 81.34 -24 81 C-23.34444881 78.47266765 -23.34444881 78.47266765 -23 76 C-22.01 76 -21.02 76 -20 76 C-20 75.01 -20 74.02 -20 73 C-19.34 73 -18.68 73 -18 73 C-17.67 71.02 -17.34 69.04 -17 67 C-16.34 67 -15.68 67 -15 67 C-14.67 65.35 -14.34 63.7 -14 62 C-13.34 62 -12.68 62 -12 62 C-11.67 60.02 -11.34 58.04 -11 56 C-10.34 56 -9.68 56 -9 56 C-9 54.02 -9 52.04 -9 50 C-8.01 49.67 -7.02 49.34 -6 49 C-6 46.36 -6 43.72 -6 41 C-5.01 40.67 -4.02 40.34 -3 40 C-3.01160156 39.24074219 -3.02320313 38.48148438 -3.03515625 37.69921875 C-3.04417969 36.70535156 -3.05320312 35.71148438 -3.0625 34.6875 C-3.07410156 33.70136719 -3.08570313 32.71523438 -3.09765625 31.69921875 C-3 29 -3 29 -2 26 C-1.34 26 -0.68 26 0 26 C0 17.42 0 8.84 0 0 Z " fill="#000000" transform="translate(1872,759)"/>
<path d="M0 0 C0.99 0 1.98 0 3 0 C3 0.99 3 1.98 3 3 C3.99 3 4.98 3 6 3 C6 11.58 6 20.16 6 29 C6.66 29 7.32 29 8 29 C8.495 33.455 8.495 33.455 9 38 C9.66 38 10.32 38 11 38 C11.495 40.97 11.495 40.97 12 44 C12.66 44 13.32 44 14 44 C14.495 46.97 14.495 46.97 15 50 C15.66 50 16.32 50 17 50 C17.495 52.475 17.495 52.475 18 55 C18.66 55 19.32 55 20 55 C20.495 57.97 20.495 57.97 21 61 C21.66 61 22.32 61 23 61 C23 61.99 23 62.98 23 64 C23.99 64 24.98 64 26 64 C26 64.99 26 65.98 26 67 C26.99 67 27.98 67 29 67 C29 67.99 29 68.98 29 70 C29.99 70 30.98 70 32 70 C32 70.99 32 71.98 32 73 C32.99 73 33.98 73 35 73 C35 73.99 35 74.98 35 76 C35.99 76 36.98 76 38 76 C38 76.99 38 77.98 38 79 C38.99 79 39.98 79 41 79 C41 79.66 41 80.32 41 81 C42.2065625 81.185625 42.2065625 81.185625 43.4375 81.375 C44.283125 81.58125 45.12875 81.7875 46 82 C46.33 82.66 46.66 83.32 47 84 C47.99 84.33 48.98 84.66 50 85 C50 85.66 50 86.32 50 87 C52.97 87.495 52.97 87.495 56 88 C56 88.66 56 89.32 56 90 C57.65 90.33 59.3 90.66 61 91 C61 91.66 61 92.32 61 93 C62.98 93 64.96 93 67 93 C67.33 93.99 67.66 94.98 68 96 C70.97851562 95.95117188 70.97851562 95.95117188 73.95703125 95.90234375 C76 96 76 96 79 97 C79 97.66 79 98.32 79 99 C87.58 99 96.16 99 105 99 C105.33 99.99 105.66 100.98 106 102 C106.66 102 107.32 102 108 102 C108 103.98 108 105.96 108 108 C100.41 108 92.82 108 85 108 C84.67 108.99 84.34 109.98 84 111 C80.37 111 76.74 111 73 111 C73 111.66 73 112.32 73 113 C68.545 113.495 68.545 113.495 64 114 C64 114.99 64 115.98 64 117 C62.02 117 60.04 117 58 117 C58 117.99 58 118.98 58 120 C56.35 120 54.7 120 53 120 C52.67 120.99 52.34 121.98 52 123 C51.01 123 50.02 123 49 123 C49 123.66 49 124.32 49 125 C46.525 125.495 46.525 125.495 44 126 C44 126.66 44 127.32 44 128 C43.01 128 42.02 128 41 128 C41 128.99 41 129.98 41 131 C40.01 131 39.02 131 38 131 C38 131.99 38 132.98 38 134 C37.01 134 36.02 134 35 134 C35 134.99 35 135.98 35 137 C34.01 137 33.02 137 32 137 C32 137.99 32 138.98 32 140 C31.01 140 30.02 140 29 140 C29 140.99 29 141.98 29 143 C28.01 143 27.02 143 26 143 C26 143.99 26 144.98 26 146 C25.34 146 24.68 146 24 146 C23.505 148.97 23.505 148.97 23 152 C22.01 152 21.02 152 20 152 C20 152.99 20 153.98 20 155 C19.34 155 18.68 155 18 155 C17.505 157.97 17.505 157.97 17 161 C16.34 161 15.68 161 15 161 C14.505 163.97 14.505 163.97 14 167 C13.34 167 12.68 167 12 167 C11.505 170.96 11.505 170.96 11 175 C10.34 175 9.68 175 9 175 C9.020625 176.051875 9.04125 177.10375 9.0625 178.1875 C9.01103198 181.32704904 8.73482813 183.96883396 8 187 C7.34 187 6.68 187 6 187 C6.00523682 187.60062256 6.01047363 188.20124512 6.01586914 188.82006836 C6.03658014 191.52586838 6.04964125 194.23165177 6.0625 196.9375 C6.07087891 197.88302734 6.07925781 198.82855469 6.08789062 199.80273438 C6.09111328 200.70185547 6.09433594 201.60097656 6.09765625 202.52734375 C6.10551147 203.77632446 6.10551147 203.77632446 6.11352539 205.05053711 C6 207 6 207 5 208 C3.33382885 208.04063832 1.66611905 208.042721 0 208 C-0.33 207.01 -0.66 206.02 -1 205 C-1.66 205 -2.32 205 -3 205 C-3 197.08 -3 189.16 -3 181 C-3.99 181 -4.98 181 -6 181 C-6 178.36 -6 175.72 -6 173 C-6.99 173 -7.98 173 -9 173 C-9 171.02 -9 169.04 -9 167 C-9.99 166.67 -10.98 166.34 -12 166 C-12 164.35 -12 162.7 -12 161 C-12.99 161 -13.98 161 -15 161 C-15 159.02 -15 157.04 -15 155 C-15.99 155 -16.98 155 -18 155 C-18 154.01 -18 153.02 -18 152 C-18.99 152 -19.98 152 -21 152 C-21 151.01 -21 150.02 -21 149 C-21.66 149 -22.32 149 -23 149 C-23 148.01 -23 147.02 -23 146 C-23.99 146 -24.98 146 -26 146 C-26.495 143.525 -26.495 143.525 -27 141 C-27.99 140.67 -28.98 140.34 -30 140 C-30 139.01 -30 138.02 -30 137 C-30.99 137 -31.98 137 -33 137 C-33 136.34 -33 135.68 -33 135 C-33.99 134.67 -34.98 134.34 -36 134 C-36 133.34 -36 132.68 -36 132 C-37.65 131.67 -39.3 131.34 -41 131 C-41 130.01 -41 129.02 -41 128 C-41.99 128 -42.98 128 -44 128 C-45.6875 126.625 -45.6875 126.625 -47 125 C-47 124.34 -47 123.68 -47 123 C-49.97 122.505 -49.97 122.505 -53 122 C-53 121.34 -53 120.68 -53 120 C-53.99 120 -54.98 120 -56 120 C-56 119.01 -56 118.02 -56 117 C-56.94875 117.020625 -57.8975 117.04125 -58.875 117.0625 C-62 117 -62 117 -64 116 C-64 115.34 -64 114.68 -64 114 C-65.98 114 -67.96 114 -70 114 C-70 113.01 -70 112.02 -70 111 C-74.95 111 -79.9 111 -85 111 C-85 110.01 -85 109.02 -85 108 C-90.94 108 -96.88 108 -103 108 C-103 106.02 -103 104.04 -103 102 C-101.02 102 -99.04 102 -97 102 C-97 101.34 -97 100.68 -97 100 C-88.31126982 99.10884819 -79.73139464 98.88375362 -71 99 C-70.505 97.515 -70.505 97.515 -70 96 C-68.02 96 -66.04 96 -64 96 C-64 95.34 -64 94.68 -64 94 C-61.29120665 92.64560332 -58.99066732 92.93498549 -56 93 C-55.505 91.515 -55.505 91.515 -55 90 C-54.01 90 -53.02 90 -52 90 C-52 89.34 -52 88.68 -52 88 C-49.525 87.505 -49.525 87.505 -47 87 C-47 86.34 -47 85.68 -47 85 C-44.03 84.505 -44.03 84.505 -41 84 C-41 83.34 -41 82.68 -41 82 C-39.6875 80.375 -39.6875 80.375 -38 79 C-37.01 79 -36.02 79 -35 79 C-35 78.01 -35 77.02 -35 76 C-34.01 76 -33.02 76 -32 76 C-32 75.01 -32 74.02 -32 73 C-31.01 73 -30.02 73 -29 73 C-29 72.01 -29 71.02 -29 70 C-28.01 70 -27.02 70 -26 70 C-26 69.01 -26 68.02 -26 67 C-25.01 67 -24.02 67 -23 67 C-23 66.01 -23 65.02 -23 64 C-22.34 64 -21.68 64 -21 64 C-21 63.01 -21 62.02 -21 61 C-20.01 61 -19.02 61 -18 61 C-18 59.35 -18 57.7 -18 56 C-17.01 55.67 -16.02 55.34 -15 55 C-14.67 53.35 -14.34 51.7 -14 50 C-13.34 50 -12.68 50 -12 50 C-12 48.02 -12 46.04 -12 44 C-11.01 44 -10.02 44 -9 44 C-9 42.02 -9 40.04 -9 38 C-8.01 37.67 -7.02 37.34 -6 37 C-6 33.37 -6 29.74 -6 26 C-5.01 26 -4.02 26 -3 26 C-3 18.08 -3 10.16 -3 2 C-2.01 2 -1.02 2 0 2 C0 1.34 0 0.68 0 0 Z " fill="#000000" transform="translate(2048,976)"/>
<path d="M0 0 C66.66 0 133.32 0 202 0 C202 0.99 202 1.98 202 3 C203.98 3 205.96 3 208 3 C208 3.99 208 4.98 208 6 C208.99 6 209.98 6 211 6 C211 7.98 211 9.96 211 12 C211.66 12 212.32 12 213 12 C214.35439668 14.70879335 214.06501451 17.00933268 214 20 C213.01 20.33 212.02 20.66 211 21 C211 22.98 211 24.96 211 27 C210.01 27 209.02 27 208 27 C208 28.65 208 30.3 208 32 C207.01 32 206.02 32 205 32 C205 32.99 205 33.98 205 35 C204.01 35 203.02 35 202 35 C202 35.99 202 36.98 202 38 C201.01 38 200.02 38 199 38 C199 38.99 199 39.98 199 41 C198.34 41 197.68 41 197 41 C196.814375 42.2065625 196.814375 42.2065625 196.625 43.4375 C196.41875 44.283125 196.2125 45.12875 196 46 C195.01 46.495 195.01 46.495 194 47 C193.67 47.99 193.34 48.98 193 50 C192.01 50 191.02 50 190 50 C190 50.99 190 51.98 190 53 C189.34 53 188.68 53 188 53 C187.67 53.99 187.34 54.98 187 56 C186.34 56 185.68 56 185 56 C184.8453125 57.1446875 184.8453125 57.1446875 184.6875 58.3125 C183.95288806 61.18416484 183.3283935 62.23042094 181 64 C180.34 64 179.68 64 179 64 C179 64.99 179 65.98 179 67 C178.01 67 177.02 67 176 67 C175.67 68.32 175.34 69.64 175 71 C174.34 71 173.68 71 173 71 C172.67 72.65 172.34 74.3 172 76 C171.34 76 170.68 76 170 76 C170 76.99 170 77.98 170 79 C169.01 79 168.02 79 167 79 C167 79.99 167 80.98 167 82 C166.01 82 165.02 82 164 82 C164 82.99 164 83.98 164 85 C163.01 85 162.02 85 161 85 C161 86.65 161 88.3 161 90 C160.01 90 159.02 90 158 90 C158 90.99 158 91.98 158 93 C157.01 93.495 157.01 93.495 156 94 C155.67 94.99 155.34 95.98 155 97 C154.01 97 153.02 97 152 97 C152 97.99 152 98.98 152 100 C151.34 100 150.68 100 150 100 C149.67 101.65 149.34 103.3 149 105 C148.01 105 147.02 105 146 105 C146 105.99 146 106.98 146 108 C145.34 108 144.68 108 144 108 C144 108.99 144 109.98 144 111 C143.01 111 142.02 111 141 111 C141 111.99 141 112.98 141 114 C140.01 114 139.02 114 138 114 C137.67 115.98 137.34 117.96 137 120 C136.34 120 135.68 120 135 120 C135 120.99 135 121.98 135 123 C134.01 123 133.02 123 132 123 C132 123.99 132 124.98 132 126 C131.01 126 130.02 126 129 126 C128.67 127.65 128.34 129.3 128 131 C127.34 131 126.68 131 126 131 C125.67 132.32 125.34 133.64 125 135 C124.34 135 123.68 135 123 135 C123 135.99 123 136.98 123 138 C122.01 138 121.02 138 120 138 C120 138.99 120 139.98 120 141 C119.34 141 118.68 141 118 141 C117.67 142.65 117.34 144.3 117 146 C116.01 146 115.02 146 114 146 C114 146.99 114 147.98 114 149 C112.625 150.6875 112.625 150.6875 111 152 C110.34 152 109.68 152 109 152 C108.505 154.97 108.505 154.97 108 158 C107.01 158 106.02 158 105 158 C105 158.99 105 159.98 105 161 C104.01 161 103.02 161 102 161 C102 161.99 102 162.98 102 164 C101.34 164 100.68 164 100 164 C100 164.99 100 165.98 100 167 C99.01 167 98.02 167 97 167 C97 167.99 97 168.98 97 170 C96.01 170 95.02 170 94 170 C93.67 171.65 93.34 173.3 93 175 C92.34 175 91.68 175 91 175 C90.67 176.32 90.34 177.64 90 179 C89.34 179 88.68 179 88 179 C88 179.66 88 180.32 88 181 C86.02 181.33 84.04 181.66 82 182 C82 182.66 82 183.32 82 184 C78.93042902 185.02319033 76.77559677 185.13371939 73.5625 185.125 C72.14130859 185.12886719 72.14130859 185.12886719 70.69140625 185.1328125 C68.29859541 185.01473475 66.28663847 184.68112635 64 184 C64 183.34 64 182.68 64 182 C62.35 181.67 60.7 181.34 59 181 C59 180.34 59 179.68 59 179 C58.01 179 57.02 179 56 179 C55.67 178.01 55.34 177.02 55 176 C54.34 175.67 53.68 175.34 53 175 C53 173.35 53 171.7 53 170 C52.01 170 51.02 170 50 170 C50 168.02 50 166.04 50 164 C49.01 164 48.02 164 47 164 C47 162.02 47 160.04 47 158 C46.01 158 45.02 158 44 158 C43.67 155.36 43.34 152.72 43 150 C42.34 150 41.68 150 41 150 C41 148.02 41 146.04 41 144 C40.01 144 39.02 144 38 144 C38 142.02 38 140.04 38 138 C37.01 138 36.02 138 35 138 C35 136.02 35 134.04 35 132 C34.01 131.67 33.02 131.34 32 131 C32 129.35 32 127.7 32 126 C31.34 126 30.68 126 30 126 C29.505 121.545 29.505 121.545 29 117 C28.01 117 27.02 117 26 117 C26 115.02 26 113.04 26 111 C25.34 111 24.68 111 24 111 C23.67 109.35 23.34 107.7 23 106 C22.34 106 21.68 106 21 106 C20.505 102.535 20.505 102.535 20 99 C19.34 99 18.68 99 18 99 C17.67 97.02 17.34 95.04 17 93 C16.34 93 15.68 93 15 93 C14.87625 92.195625 14.7525 91.39125 14.625 90.5625 C14.41875 89.716875 14.2125 88.87125 14 88 C13.34 87.67 12.68 87.34 12 87 C11.40644386 84.35139573 11.25790731 81.70802678 11 79 C10.34 79 9.68 79 9 79 C8.87625 78.195625 8.7525 77.39125 8.625 76.5625 C8.41875 75.716875 8.2125 74.87125 8 74 C7.34 73.67 6.68 73.34 6 73 C6 71.02 6 69.04 6 67 C5.01 67 4.02 67 3 67 C3 65.02 3 63.04 3 61 C2.01 61 1.02 61 0 61 C0 59.02 0 57.04 0 55 C-0.99 55 -1.98 55 -3 55 C-3 53.02 -3 51.04 -3 49 C-3.66 49 -4.32 49 -5 49 C-6.35439668 46.29120665 -6.06501451 43.99066732 -6 41 C-6.99 41 -7.98 41 -9 41 C-9 39.02 -9 37.04 -9 35 C-9.99 35 -10.98 35 -12 35 C-12 33.02 -12 31.04 -12 29 C-12.66 29 -13.32 29 -14 29 C-15.4783226 26.04335481 -15.06032783 23.25770263 -15 20 C-15.66 20 -16.32 20 -17 20 C-17 19.34 -17 18.68 -17 18 C-16.34 18 -15.68 18 -15 18 C-15 15.03 -15 12.06 -15 9 C-14.01 9 -13.02 9 -12 9 C-12 8.01 -12 7.02 -12 6 C-11.01 6 -10.02 6 -9 6 C-9 5.01 -9 4.02 -9 3 C-4.545 2.505 -4.545 2.505 0 2 C0 1.34 0 0.68 0 0 Z " fill="#000000" transform="translate(1210,1005)"/>
<path d="M0 0 C66.66 0 133.32 0 202 0 C202 0.66 202 1.32 202 2 C203.98 2.33 205.96 2.66 208 3 C208 3.99 208 4.98 208 6 C208.99 6 209.98 6 211 6 C211 6.99 211 7.98 211 9 C211.99 9 212.98 9 214 9 C214 14.61 214 20.22 214 26 C213.01 26 212.02 26 211 26 C211 27.98 211 29.96 211 32 C210.01 32 209.02 32 208 32 C208 33.98 208 35.96 208 38 C207.01 38 206.02 38 205 38 C205 39.65 205 41.3 205 43 C204.01 43.33 203.02 43.66 202 44 C202 45.65 202 47.3 202 49 C201.01 49.495 201.01 49.495 200 50 C199.34227572 53.02934491 199.34227572 53.02934491 199 56 C198.01 56 197.02 56 196 56 C196 57.98 196 59.96 196 62 C195.01 62 194.02 62 193 62 C193 63.98 193 65.96 193 68 C192.34 68 191.68 68 191 68 C190.67 70.64 190.34 73.28 190 76 C189.01 76 188.02 76 187 76 C187 77.98 187 79.96 187 82 C186.34 82 185.68 82 185 82 C184.67 83.98 184.34 85.96 184 88 C183.34 88 182.68 88 182 88 C181.67 89.98 181.34 91.96 181 94 C180.34 94 179.68 94 179 94 C178.67 95.98 178.34 97.96 178 100 C177.34 100 176.68 100 176 100 C176 101.65 176 103.3 176 105 C175.01 105.33 174.02 105.66 173 106 C173 107.65 173 109.3 173 111 C172.01 111.33 171.02 111.66 170 112 C169.67 114.64 169.34 117.28 169 120 C168.34 120 167.68 120 167 120 C166.67 121.65 166.34 123.3 166 125 C165.34 125 164.68 125 164 125 C164 126.98 164 128.96 164 131 C163.01 131.33 162.02 131.66 161 132 C161 133.65 161 135.3 161 137 C160.01 137.33 159.02 137.66 158 138 C158 139.98 158 141.96 158 144 C157.01 144 156.02 144 155 144 C155 145.65 155 147.3 155 149 C154.34 149.33 153.68 149.66 153 150 C152.34444881 152.52733235 152.34444881 152.52733235 152 155 C151.34 155 150.68 155 150 155 C149.67 156.98 149.34 158.96 149 161 C148.34 161 147.68 161 147 161 C146.67 162.98 146.34 164.96 146 167 C145.34 167 144.68 167 144 167 C143.67 168.98 143.34 170.96 143 173 C142.34 173 141.68 173 141 173 C140.67 174.65 140.34 176.3 140 178 C138.35 178.33 136.7 178.66 135 179 C134.67 179.99 134.34 180.98 134 182 C132.35 182 130.7 182 129 182 C129 182.66 129 183.32 129 184 C125.04 184 121.08 184 117 184 C117 183.34 117 182.68 117 182 C115.35 182 113.7 182 112 182 C111.67 181.01 111.34 180.02 111 179 C110.01 179 109.02 179 108 179 C108 178.01 108 177.02 108 176 C107.01 176 106.02 176 105 176 C105 175.01 105 174.02 105 173 C104.01 173 103.02 173 102 173 C102 172.01 102 171.02 102 170 C101.34 170 100.68 170 100 170 C100 169.01 100 168.02 100 167 C99.01 167 98.02 167 97 167 C96.67 166.01 96.34 165.02 96 164 C95.2265625 163.2575 95.2265625 163.2575 94.4375 162.5 C93 161 93 161 93 158 C92.34 158 91.68 158 91 158 C91 157.01 91 156.02 91 155 C90.01 155 89.02 155 88 155 C88 154.01 88 153.02 88 152 C87.01 152 86.02 152 85 152 C84.505 149.525 84.505 149.525 84 147 C83.34 147 82.68 147 82 147 C82 146.01 82 145.02 82 144 C81.01 144 80.02 144 79 144 C79 142.68 79 141.36 79 140 C78.01 140 77.02 140 76 140 C76 138.35 76 136.7 76 135 C75.01 135 74.02 135 73 135 C73 134.01 73 133.02 73 132 C72.01 132 71.02 132 70 132 C70 131.01 70 130.02 70 129 C69.01 128.67 68.02 128.34 67 128 C67 126.35 67 124.7 67 123 C66.01 123 65.02 123 64 123 C64 122.01 64 121.02 64 120 C63.01 120 62.02 120 61 120 C61 119.01 61 118.02 61 117 C60.01 117 59.02 117 58 117 C58 116.01 58 115.02 58 114 C57.34 114 56.68 114 56 114 C56 113.01 56 112.02 56 111 C55.01 111 54.02 111 53 111 C52.67 109.35 52.34 107.7 52 106 C51.34 106 50.68 106 50 106 C49.67 105.01 49.34 104.02 49 103 C48.01 102.505 48.01 102.505 47 102 C47 101.01 47 100.02 47 99 C46.01 99 45.02 99 44 99 C43.67 97.35 43.34 95.7 43 94 C42.34 94 41.68 94 41 94 C41 93.01 41 92.02 41 91 C40.01 91 39.02 91 38 91 C38 90.01 38 89.02 38 88 C37.01 88 36.02 88 35 88 C35 87.01 35 86.02 35 85 C34.01 84.67 33.02 84.34 32 84 C32 82.35 32 80.7 32 79 C31.01 79 30.02 79 29 79 C29 78.01 29 77.02 29 76 C28.01 76 27.02 76 26 76 C26 75.01 26 74.02 26 73 C25.01 73 24.02 73 23 73 C23 72.01 23 71.02 23 70 C22.34 70 21.68 70 21 70 C20.67 68.35 20.34 66.7 20 65 C19.01 64.67 18.02 64.34 17 64 C17 63.01 17 62.02 17 61 C16.01 61 15.02 61 14 61 C14 60.01 14 59.02 14 58 C13.34 58 12.68 58 12 58 C8 53.64705882 8 53.64705882 8 50 C7.34 50 6.68 50 6 50 C6 49.01 6 48.02 6 47 C5.01 47 4.02 47 3 47 C3 46.01 3 45.02 3 44 C2.01 44 1.02 44 0 44 C0 43.01 0 42.02 0 41 C-0.99 41 -1.98 41 -3 41 C-3 39.02 -3 37.04 -3 35 C-3.99 35 -4.98 35 -6 35 C-6 34.01 -6 33.02 -6 32 C-6.99 32 -7.98 32 -9 32 C-9 31.01 -9 30.02 -9 29 C-9.99 29 -10.98 29 -12 29 C-12 27.02 -12 25.04 -12 23 C-12.99 23 -13.98 23 -15 23 C-15.02694851 21.04174127 -15.04637218 19.08337774 -15.0625 17.125 C-15.07410156 16.03445313 -15.08570313 14.94390625 -15.09765625 13.8203125 C-15 11 -15 11 -14 9 C-13.34 9 -12.68 9 -12 9 C-12 8.01 -12 7.02 -12 6 C-11.01 6 -10.02 6 -9 6 C-9 5.01 -9 4.02 -9 3 C-4.545 2.505 -4.545 2.505 0 2 C0 1.34 0 0.68 0 0 Z " fill="#000000" transform="translate(1591,1005)"/>
<path d="M0 0 C0.99 0 1.98 0 3 0 C3 0.99 3 1.98 3 3 C6.96 3 10.92 3 15 3 C15 3.99 15 4.98 15 6 C15.99 6 16.98 6 18 6 C18 6.66 18 7.32 18 8 C18.99 8.33 19.98 8.66 21 9 C21 9.66 21 10.32 21 11 C21.99 11.33 22.98 11.66 24 12 C24 12.66 24 13.32 24 14 C24.99 14.33 25.98 14.66 27 15 C27 15.66 27 16.32 27 17 C27.66 17 28.32 17 29 17 C29.33 17.99 29.66 18.98 30 20 C30.66 20.33 31.32 20.66 32 21 C32 21.99 32 22.98 32 24 C32.99 24 33.98 24 35 24 C35.33 25.65 35.66 27.3 36 29 C36.66 29 37.32 29 38 29 C38 29.99 38 30.98 38 32 C38.99 32 39.98 32 41 32 C41 32.99 41 33.98 41 35 C41.99 35 42.98 35 44 35 C44 35.99 44 36.98 44 38 C44.99 38 45.98 38 47 38 C47 39.98 47 41.96 47 44 C47.99 44 48.98 44 50 44 C50 44.99 50 45.98 50 47 C50.99 47 51.98 47 53 47 C53 47.99 53 48.98 53 50 C53.99 50 54.98 50 56 50 C56 50.99 56 51.98 56 53 C56.99 53 57.98 53 59 53 C59 53.99 59 54.98 59 56 C59.66 56 60.32 56 61 56 C61.33 57.65 61.66 59.3 62 61 C62.99 61.33 63.98 61.66 65 62 C65 62.66 65 63.32 65 64 C65.99 64.33 66.98 64.66 68 65 C68 65.66 68 66.32 68 67 C68.66 67 69.32 67 70 67 C70 67.99 70 68.98 70 70 C70.99 70 71.98 70 73 70 C73.33 70.99 73.66 71.98 74 73 C74.66 73.33 75.32 73.66 76 74 C76.625 76.5625 76.625 76.5625 77 79 C77.66 79 78.32 79 79 79 C79 79.99 79 80.98 79 82 C79.99 82 80.98 82 82 82 C82 82.99 82 83.98 82 85 C82.99 85 83.98 85 85 85 C85 85.99 85 86.98 85 88 C85.99 88 86.98 88 88 88 C88 89.65 88 91.3 88 93 C88.99 93 89.98 93 91 93 C91 94.32 91 95.64 91 97 C91.99 97 92.98 97 94 97 C94 97.99 94 98.98 94 100 C94.99 100 95.98 100 97 100 C97 100.99 97 101.98 97 103 C97.66 103 98.32 103 99 103 C99.33 104.65 99.66 106.3 100 108 C100.99 108 101.98 108 103 108 C103 108.99 103 109.98 103 111 C103.99 111.33 104.98 111.66 106 112 C106 112.66 106 113.32 106 114 C106.66 114 107.32 114 108 114 C108 114.99 108 115.98 108 117 C108.99 117 109.98 117 111 117 C111.33 117.99 111.66 118.98 112 120 C112.515625 120.495 113.03125 120.99 113.5625 121.5 C115 123 115 123 115 126 C115.66 126 116.32 126 117 126 C117 126.99 117 127.98 117 129 C117.99 129 118.98 129 120 129 C120 129.99 120 130.98 120 132 C120.99 132 121.98 132 123 132 C123 132.99 123 133.98 123 135 C123.99 135 124.98 135 126 135 C126 136.65 126 138.3 126 140 C126.99 140 127.98 140 129 140 C129 140.99 129 141.98 129 143 C129.99 143 130.98 143 132 143 C132 143.99 132 144.98 132 146 C132.99 146.33 133.98 146.66 135 147 C135 147.99 135 148.98 135 150 C135.99 150 136.98 150 138 150 C138 150.99 138 151.98 138 153 C138.66 153 139.32 153 140 153 C140.33 154.65 140.66 156.3 141 158 C141.99 158 142.98 158 144 158 C144 158.99 144 159.98 144 161 C144.99 161.33 145.98 161.66 147 162 C147 162.66 147 163.32 147 164 C147.66 164 148.32 164 149 164 C149 164.99 149 165.98 149 167 C149.99 167 150.98 167 152 167 C152.33 168.65 152.66 170.3 153 172 C153.66 172 154.32 172 155 172 C155.33 172.99 155.66 173.98 156 175 C156.66 175.33 157.32 175.66 158 176 C158.08097324 178.27024968 158.13917704 180.54132075 158.1875 182.8125 C158.22230469 184.07707031 158.25710938 185.34164063 158.29296875 186.64453125 C158 190 158 190 156.61328125 191.94921875 C155 193 155 193 153 193 C153 193.99 153 194.98 153 196 C151.68 196 150.36 196 149 196 C149 196.99 149 197.98 149 199 C112.97329733 199.15047496 76.94657686 199.2955058 40.9198232 199.4332476 C36.66538003 199.44951836 32.41093703 199.46583413 28.15649414 199.48217773 C26.88603344 199.48705712 26.88603344 199.48705712 25.58990686 199.49203508 C11.88047182 199.54479548 -1.82894591 199.60120173 -15.53836071 199.6589582 C-29.60817481 199.71815175 -43.67800039 199.77342067 -57.74784428 199.82505554 C-66.42786579 199.85703374 -75.10786392 199.8920636 -83.787857 199.93101191 C-89.74212972 199.95743612 -95.69640935 199.98004405 -101.65070831 199.99967117 C-105.08466801 200.01110258 -108.51859979 200.0241972 -111.95253372 200.04183006 C-115.68034692 200.06009243 -119.40812861 200.07197929 -123.13597107 200.08229065 C-124.21478481 200.08909444 -125.29359856 200.09589823 -126.40510362 200.10290819 C-132.35687053 200.11172677 -138.09771535 199.77711515 -144 199 C-144 198.34 -144 197.68 -144 197 C-144.99 196.67 -145.98 196.34 -147 196 C-147 195.34 -147 194.68 -147 194 C-147.66 194 -148.32 194 -149 194 C-149.33 193.01 -149.66 192.02 -150 191 C-150.66 190.67 -151.32 190.34 -152 190 C-152 185.38 -152 180.76 -152 176 C-151.34 176 -150.68 176 -150 176 C-149.67 174.02 -149.34 172.04 -149 170 C-148.01 170 -147.02 170 -146 170 C-146 169.01 -146 168.02 -146 167 C-145.01 167 -144.02 167 -143 167 C-143 166.01 -143 165.02 -143 164 C-142.34 164 -141.68 164 -141 164 C-141 163.01 -141 162.02 -141 161 C-140.01 161 -139.02 161 -138 161 C-137.896875 160.236875 -137.79375 159.47375 -137.6875 158.6875 C-136.95288806 155.81583516 -136.3283935 154.76957906 -134 153 C-133.34 153 -132.68 153 -132 153 C-132 152.01 -132 151.02 -132 150 C-131.01 150 -130.02 150 -129 150 C-128.67 148.68 -128.34 147.36 -128 146 C-127.34 146 -126.68 146 -126 146 C-126 145.01 -126 144.02 -126 143 C-125.01 143 -124.02 143 -123 143 C-123 142.01 -123 141.02 -123 140 C-122.01 140 -121.02 140 -120 140 C-120 138.35 -120 136.7 -120 135 C-119.01 135 -118.02 135 -117 135 C-117 134.01 -117 133.02 -117 132 C-116.01 132 -115.02 132 -114 132 C-114 131.01 -114 130.02 -114 129 C-113.01 129 -112.02 129 -111 129 C-111 128.01 -111 127.02 -111 126 C-109.625 124.3125 -109.625 124.3125 -108 123 C-107.34 123 -106.68 123 -106 123 C-106 122.01 -106 121.02 -106 120 C-105.01 120 -104.02 120 -103 120 C-102.87625 119.195625 -102.7525 118.39125 -102.625 117.5625 C-102.41875 116.716875 -102.2125 115.87125 -102 115 C-101.34 114.67 -100.68 114.34 -100 114 C-99.505 112.515 -99.505 112.515 -99 111 C-98.34 111 -97.68 111 -97 111 C-96.505 109.515 -96.505 109.515 -96 108 C-95.34 108 -94.68 108 -94 108 C-94 107.01 -94 106.02 -94 105 C-93.01 105 -92.02 105 -91 105 C-90.896875 104.236875 -90.79375 103.47375 -90.6875 102.6875 C-89.95288806 99.81583516 -89.3283935 98.76957906 -87 97 C-86.34 97 -85.68 97 -85 97 C-85 96.01 -85 95.02 -85 94 C-84.01 94 -83.02 94 -82 94 C-82 93.01 -82 92.02 -82 91 C-81.01 91 -80.02 91 -79 91 C-79 89.02 -79 87.04 -79 85 C-78.01 85 -77.02 85 -76 85 C-76 84.01 -76 83.02 -76 82 C-75.01 82 -74.02 82 -73 82 C-73 81.01 -73 80.02 -73 79 C-72.01 79 -71.02 79 -70 79 C-70 78.01 -70 77.02 -70 76 C-69.34 76 -68.68 76 -68 76 C-68 75.01 -68 74.02 -68 73 C-67.01 73 -66.02 73 -65 73 C-64.87625 72.195625 -64.7525 71.39125 -64.625 70.5625 C-64.41875 69.716875 -64.2125 68.87125 -64 68 C-63.34 67.67 -62.68 67.34 -62 67 C-61.505 65.515 -61.505 65.515 -61 64 C-60.34 64 -59.68 64 -59 64 C-58.67 63.01 -58.34 62.02 -58 61 C-57.34 61 -56.68 61 -56 61 C-55.896875 60.236875 -55.79375 59.47375 -55.6875 58.6875 C-54.95288806 55.81583516 -54.3283935 54.76957906 -52 53 C-51.34 53 -50.68 53 -50 53 C-50 52.01 -50 51.02 -50 50 C-49.01 50 -48.02 50 -47 50 C-47 49.01 -47 48.02 -47 47 C-46.01 47 -45.02 47 -44 47 C-44 46.01 -44 45.02 -44 44 C-43.01 44 -42.02 44 -41 44 C-41 42.02 -41 40.04 -41 38 C-40.01 38 -39.02 38 -38 38 C-38 37.01 -38 36.02 -38 35 C-37.01 35 -36.02 35 -35 35 C-35 34.01 -35 33.02 -35 32 C-34.01 32 -33.02 32 -32 32 C-32 31.01 -32 30.02 -32 29 C-31.01 29 -30.02 29 -29 29 C-29 27.35 -29 25.7 -29 24 C-28.01 24 -27.02 24 -26 24 C-26 23.01 -26 22.02 -26 21 C-24.34997172 19.64613064 -22.6825613 18.31321858 -21 17 C-20.67 16.01 -20.34 15.02 -20 14 C-19.34 14 -18.68 14 -18 14 C-17.67 12.35 -17.34 10.7 -17 9 C-15.35 8.67 -13.7 8.34 -12 8 C-12 7.34 -12 6.68 -12 6 C-11.01 6 -10.02 6 -9 6 C-9 5.01 -9 4.02 -9 3 C-4.545 2.505 -4.545 2.505 0 2 C0 1.34 0 0.68 0 0 Z " fill="#000000" transform="translate(1497,1043)"/>
<path d="M0 0 C1.27230469 0.00902344 2.54460937 0.01804687 3.85546875 0.02734375 C5.31919922 0.04474609 5.31919922 0.04474609 6.8125 0.0625 C7.3075 1.5475 7.3075 1.5475 7.8125 3.0625 C9.4625 3.0625 11.1125 3.0625 12.8125 3.0625 C12.8125 4.0525 12.8125 5.0425 12.8125 6.0625 C13.8025 6.0625 14.7925 6.0625 15.8125 6.0625 C15.8125 7.0525 15.8125 8.0425 15.8125 9.0625 C16.8025 9.0625 17.7925 9.0625 18.8125 9.0625 C18.8125 10.0525 18.8125 11.0425 18.8125 12.0625 C19.8025 12.0625 20.7925 12.0625 21.8125 12.0625 C21.8125 13.0525 21.8125 14.0425 21.8125 15.0625 C22.8025 15.0625 23.7925 15.0625 24.8125 15.0625 C24.8125 16.0525 24.8125 17.0425 24.8125 18.0625 C25.8025 18.0625 26.7925 18.0625 27.8125 18.0625 C27.8125 19.0525 27.8125 20.0425 27.8125 21.0625 C28.8025 21.0625 29.7925 21.0625 30.8125 21.0625 C30.8125 22.0525 30.8125 23.0425 30.8125 24.0625 C31.8025 24.0625 32.7925 24.0625 33.8125 24.0625 C33.8125 25.0525 33.8125 26.0425 33.8125 27.0625 C34.4725 27.0625 35.1325 27.0625 35.8125 27.0625 C37.4375 28.4375 37.4375 28.4375 38.8125 30.0625 C38.8125 30.7225 38.8125 31.3825 38.8125 32.0625 C39.8025 32.0625 40.7925 32.0625 41.8125 32.0625 C41.8125 33.0525 41.8125 34.0425 41.8125 35.0625 C42.8025 35.0625 43.7925 35.0625 44.8125 35.0625 C44.8125 36.0525 44.8125 37.0425 44.8125 38.0625 C45.8025 38.0625 46.7925 38.0625 47.8125 38.0625 C47.8125 39.0525 47.8125 40.0425 47.8125 41.0625 C48.8025 41.0625 49.7925 41.0625 50.8125 41.0625 C50.8125 42.0525 50.8125 43.0425 50.8125 44.0625 C51.8025 44.0625 52.7925 44.0625 53.8125 44.0625 C53.8125 45.0525 53.8125 46.0425 53.8125 47.0625 C54.8025 47.0625 55.7925 47.0625 56.8125 47.0625 C56.8125 48.0525 56.8125 49.0425 56.8125 50.0625 C57.8025 50.0625 58.7925 50.0625 59.8125 50.0625 C59.8125 51.0525 59.8125 52.0425 59.8125 53.0625 C60.8025 53.0625 61.7925 53.0625 62.8125 53.0625 C62.8125 54.0525 62.8125 55.0425 62.8125 56.0625 C63.8025 56.0625 64.7925 56.0625 65.8125 56.0625 C65.8125 57.0525 65.8125 58.0425 65.8125 59.0625 C66.8025 59.0625 67.7925 59.0625 68.8125 59.0625 C68.8125 60.0525 68.8125 61.0425 68.8125 62.0625 C69.8025 62.0625 70.7925 62.0625 71.8125 62.0625 C71.8125 63.0525 71.8125 64.0425 71.8125 65.0625 C72.8025 65.0625 73.7925 65.0625 74.8125 65.0625 C74.8125 65.7225 74.8125 66.3825 74.8125 67.0625 C75.8025 67.3925 76.7925 67.7225 77.8125 68.0625 C77.8125 68.7225 77.8125 69.3825 77.8125 70.0625 C78.8025 70.3925 79.7925 70.7225 80.8125 71.0625 C80.8125 71.7225 80.8125 72.3825 80.8125 73.0625 C81.8025 73.3925 82.7925 73.7225 83.8125 74.0625 C83.8125 74.7225 83.8125 75.3825 83.8125 76.0625 C84.8025 76.3925 85.7925 76.7225 86.8125 77.0625 C86.8125 77.7225 86.8125 78.3825 86.8125 79.0625 C87.8025 79.3925 88.7925 79.7225 89.8125 80.0625 C89.8125 80.7225 89.8125 81.3825 89.8125 82.0625 C90.8025 82.3925 91.7925 82.7225 92.8125 83.0625 C92.8125 83.7225 92.8125 84.3825 92.8125 85.0625 C93.8025 85.3925 94.7925 85.7225 95.8125 86.0625 C95.8125 86.7225 95.8125 87.3825 95.8125 88.0625 C96.39 88.124375 96.9675 88.18625 97.5625 88.25 C100.69507571 89.3812079 101.84710851 91.44197801 103.8125 94.0625 C104.4725 94.3925 105.1325 94.7225 105.8125 95.0625 C105.8125 95.7225 105.8125 96.3825 105.8125 97.0625 C106.8025 97.0625 107.7925 97.0625 108.8125 97.0625 C108.8125 98.0525 108.8125 99.0425 108.8125 100.0625 C109.8025 100.0625 110.7925 100.0625 111.8125 100.0625 C111.8125 101.0525 111.8125 102.0425 111.8125 103.0625 C112.8025 103.0625 113.7925 103.0625 114.8125 103.0625 C114.8125 104.0525 114.8125 105.0425 114.8125 106.0625 C115.8025 106.0625 116.7925 106.0625 117.8125 106.0625 C117.8125 107.0525 117.8125 108.0425 117.8125 109.0625 C118.8025 109.0625 119.7925 109.0625 120.8125 109.0625 C120.8125 110.0525 120.8125 111.0425 120.8125 112.0625 C121.8025 112.0625 122.7925 112.0625 123.8125 112.0625 C123.8125 113.0525 123.8125 114.0425 123.8125 115.0625 C124.8025 115.0625 125.7925 115.0625 126.8125 115.0625 C126.8125 116.0525 126.8125 117.0425 126.8125 118.0625 C127.8025 118.0625 128.7925 118.0625 129.8125 118.0625 C131.5 119.4375 131.5 119.4375 132.8125 121.0625 C132.8125 121.7225 132.8125 122.3825 132.8125 123.0625 C133.8025 123.0625 134.7925 123.0625 135.8125 123.0625 C135.8125 124.0525 135.8125 125.0425 135.8125 126.0625 C136.8025 126.0625 137.7925 126.0625 138.8125 126.0625 C138.8125 127.0525 138.8125 128.0425 138.8125 129.0625 C139.8025 129.0625 140.7925 129.0625 141.8125 129.0625 C141.8125 130.0525 141.8125 131.0425 141.8125 132.0625 C142.8025 132.0625 143.7925 132.0625 144.8125 132.0625 C144.8125 133.0525 144.8125 134.0425 144.8125 135.0625 C145.8025 135.0625 146.7925 135.0625 147.8125 135.0625 C147.8125 136.0525 147.8125 137.0425 147.8125 138.0625 C148.8025 138.0625 149.7925 138.0625 150.8125 138.0625 C150.8125 139.0525 150.8125 140.0425 150.8125 141.0625 C151.8025 141.0625 152.7925 141.0625 153.8125 141.0625 C153.8125 142.0525 153.8125 143.0425 153.8125 144.0625 C154.8025 144.0625 155.7925 144.0625 156.8125 144.0625 C156.8125 145.0525 156.8125 146.0425 156.8125 147.0625 C157.8025 147.0625 158.7925 147.0625 159.8125 147.0625 C159.8125 148.0525 159.8125 149.0425 159.8125 150.0625 C160.4725 150.0625 161.1325 150.0625 161.8125 150.0625 C163.42578125 151.20703125 163.42578125 151.20703125 164.8125 153.0625 C165.10546875 155.76171875 165.10546875 155.76171875 165 158.75 C164.95939453 160.24080078 164.95939453 160.24080078 164.91796875 161.76171875 C164.88316406 162.52097656 164.84835937 163.28023437 164.8125 164.0625 C164.1525 164.3925 163.4925 164.7225 162.8125 165.0625 C162.4825 166.0525 162.1525 167.0425 161.8125 168.0625 C161.1525 168.0625 160.4925 168.0625 159.8125 168.0625 C159.8125 168.7225 159.8125 169.3825 159.8125 170.0625 C158.8225 170.0625 157.8325 170.0625 156.8125 170.0625 C156.8125 171.0525 156.8125 172.0425 156.8125 173.0625 C137.73340903 173.19597317 118.65429924 173.32639984 99.57516575 173.45365143 C90.70675778 173.51286431 81.83835732 173.57291933 72.9699707 173.63525391 C36.00180838 173.89452952 -0.96620353 174.11527162 -37.93534589 174.15311241 C-40.32751717 174.15622381 -42.71967808 174.1611624 -45.11184502 174.16664124 C-48.8331234 174.17490142 -52.55437123 174.17805402 -56.27565837 174.17712975 C-58.27003182 174.17771386 -60.26440214 174.18304692 -62.25876808 174.18855286 C-79.02451347 174.16733721 -79.02451347 174.16733721 -82.6875 170.6875 C-84.1875 168.0625 -84.1875 168.0625 -84.1875 165.0625 C-85.1775 164.7325 -86.1675 164.4025 -87.1875 164.0625 C-87.21455729 162.29175083 -87.23392195 160.52088289 -87.25 158.75 C-87.26160156 157.76386719 -87.27320313 156.77773437 -87.28515625 155.76171875 C-87.1875 153.0625 -87.1875 153.0625 -86.1875 150.0625 C-85.5275 150.0625 -84.8675 150.0625 -84.1875 150.0625 C-84.1875 148.0825 -84.1875 146.1025 -84.1875 144.0625 C-83.1975 144.0625 -82.2075 144.0625 -81.1875 144.0625 C-81.1875 142.0825 -81.1875 140.1025 -81.1875 138.0625 C-80.1975 138.0625 -79.2075 138.0625 -78.1875 138.0625 C-78.1875 136.0825 -78.1875 134.1025 -78.1875 132.0625 C-77.1975 132.0625 -76.2075 132.0625 -75.1875 132.0625 C-75.1875 130.0825 -75.1875 128.1025 -75.1875 126.0625 C-74.1975 126.0625 -73.2075 126.0625 -72.1875 126.0625 C-72.1875 124.0825 -72.1875 122.1025 -72.1875 120.0625 C-71.1975 120.0625 -70.2075 120.0625 -69.1875 120.0625 C-69.1875 118.0825 -69.1875 116.1025 -69.1875 114.0625 C-68.5275 114.0625 -67.8675 114.0625 -67.1875 114.0625 C-66.8575 112.0825 -66.5275 110.1025 -66.1875 108.0625 C-65.5275 108.0625 -64.8675 108.0625 -64.1875 108.0625 C-63.8575 105.4225 -63.5275 102.7825 -63.1875 100.0625 C-62.1975 100.0625 -61.2075 100.0625 -60.1875 100.0625 C-60.1875 98.0825 -60.1875 96.1025 -60.1875 94.0625 C-59.1975 94.0625 -58.2075 94.0625 -57.1875 94.0625 C-57.1875 92.0825 -57.1875 90.1025 -57.1875 88.0625 C-56.5275 88.0625 -55.8675 88.0625 -55.1875 88.0625 C-54.8575 86.0825 -54.5275 84.1025 -54.1875 82.0625 C-53.5275 82.0625 -52.8675 82.0625 -52.1875 82.0625 C-51.8575 80.0825 -51.5275 78.1025 -51.1875 76.0625 C-50.5275 76.0625 -49.8675 76.0625 -49.1875 76.0625 C-48.8575 74.0825 -48.5275 72.1025 -48.1875 70.0625 C-47.5275 70.0625 -46.8675 70.0625 -46.1875 70.0625 C-45.8575 68.4125 -45.5275 66.7625 -45.1875 65.0625 C-44.5275 65.0625 -43.8675 65.0625 -43.1875 65.0625 C-42.8575 62.0925 -42.5275 59.1225 -42.1875 56.0625 C-41.5275 56.0625 -40.8675 56.0625 -40.1875 56.0625 C-39.8575 54.0825 -39.5275 52.1025 -39.1875 50.0625 C-38.5275 50.0625 -37.8675 50.0625 -37.1875 50.0625 C-37.1875 48.4125 -37.1875 46.7625 -37.1875 45.0625 C-36.1975 44.7325 -35.2075 44.4025 -34.1875 44.0625 C-34.1875 42.4125 -34.1875 40.7625 -34.1875 39.0625 C-33.1975 38.7325 -32.2075 38.4025 -31.1875 38.0625 C-31.1875 36.0825 -31.1875 34.1025 -31.1875 32.0625 C-30.1975 32.0625 -29.2075 32.0625 -28.1875 32.0625 C-28.1875 30.0825 -28.1875 28.1025 -28.1875 26.0625 C-27.1975 26.0625 -26.2075 26.0625 -25.1875 26.0625 C-25.1875 24.0825 -25.1875 22.1025 -25.1875 20.0625 C-24.5275 20.0625 -23.8675 20.0625 -23.1875 20.0625 C-22.8575 18.4125 -22.5275 16.7625 -22.1875 15.0625 C-21.5275 15.0625 -20.8675 15.0625 -20.1875 15.0625 C-19.8575 13.0825 -19.5275 11.1025 -19.1875 9.0625 C-18.5275 9.0625 -17.8675 9.0625 -17.1875 9.0625 C-16.8575 8.0725 -16.5275 7.0825 -16.1875 6.0625 C-15.5275 6.0625 -14.8675 6.0625 -14.1875 6.0625 C-13.8575 5.0725 -13.5275 4.0825 -13.1875 3.0625 C-12.1975 3.0625 -11.2075 3.0625 -10.1875 3.0625 C-10.1875 2.4025 -10.1875 1.7425 -10.1875 1.0625 C-6.62704823 -0.12431726 -3.74941663 -0.03439832 0 0 Z " fill="#000000" transform="translate(1862.1875,1068.9375)"/>
<path d="M0 0 C4.62 0 9.24 0 14 0 C14.33 0.99 14.66 1.98 15 3 C16.65 3 18.3 3 20 3 C20.33 3.99 20.66 4.98 21 6 C21.99 6.33 22.98 6.66 24 7 C24 7.66 24 8.32 24 9 C24.66 9 25.32 9 26 9 C26 9.99 26 10.98 26 12 C26.99 12 27.98 12 29 12 C29 13.98 29 15.96 29 18 C29.99 18 30.98 18 32 18 C32 19.98 32 21.96 32 24 C32.99 24 33.98 24 35 24 C35 26.64 35 29.28 35 32 C35.99 32 36.98 32 38 32 C38 33.98 38 35.96 38 38 C38.99 38 39.98 38 41 38 C41 39.98 41 41.96 41 44 C41.99 44 42.98 44 44 44 C44 45.98 44 47.96 44 50 C44.99 50.33 45.98 50.66 47 51 C47 52.65 47 54.3 47 56 C47.66 56 48.32 56 49 56 C49.33 57.98 49.66 59.96 50 62 C50.66 62 51.32 62 52 62 C52.33 63.98 52.66 65.96 53 68 C53.66 68 54.32 68 55 68 C55.33 70.64 55.66 73.28 56 76 C56.66 76 57.32 76 58 76 C58.33 77.98 58.66 79.96 59 82 C59.66 82 60.32 82 61 82 C61.33 83.98 61.66 85.96 62 88 C62.66 88 63.32 88 64 88 C64.33 89.98 64.66 91.96 65 94 C65.66 94 66.32 94 67 94 C67 95.98 67 97.96 67 100 C67.99 100 68.98 100 70 100 C70 101.98 70 103.96 70 106 C70.99 106 71.98 106 73 106 C73 107.98 73 109.96 73 112 C73.99 112 74.98 112 76 112 C76 113.98 76 115.96 76 118 C76.99 118 77.98 118 79 118 C79 119.98 79 121.96 79 124 C79.66 124 80.32 124 81 124 C82.35439668 126.70879335 82.06501451 129.00933268 82 132 C82.99 132 83.98 132 85 132 C85 133.98 85 135.96 85 138 C85.99 138 86.98 138 88 138 C88 139.98 88 141.96 88 144 C88.99 144 89.98 144 91 144 C91 145.98 91 147.96 91 150 C91.66 150 92.32 150 93 150 C94.125 157.625 94.125 157.625 93 161 C92.34 161 91.68 161 91 161 C90.67 162.32 90.34 163.64 90 165 C89.34 165 88.68 165 88 165 C88 165.66 88 166.32 88 167 C87.01 167 86.02 167 85 167 C85 167.99 85 168.98 85 170 C78.80329373 170.78012854 72.77825676 171.14370179 66.53683472 171.12698364 C65.62753523 171.12854363 64.71823574 171.13010362 63.78138173 171.13171089 C60.7577207 171.13567521 57.73411056 171.13254906 54.71044922 171.12939453 C52.53331473 171.13075058 50.35618046 171.13253166 48.17904663 171.13470459 C42.28259767 171.13925414 36.38616626 171.13749969 30.48971701 171.1343255 C24.31371101 171.13178975 18.1377065 171.13414277 11.96170044 171.13571167 C1.59344209 171.13752954 -8.77480914 171.13513679 -19.14306641 171.13037109 C-31.12700451 171.12492634 -43.11091812 171.12669422 -55.09485638 171.1321975 C-65.3906049 171.13673609 -75.68634831 171.1373756 -85.98209751 171.13475883 C-92.12856187 171.13320054 -98.27501824 171.1329901 -104.42148209 171.13629532 C-110.19825156 171.13918494 -115.9749991 171.13717821 -121.7517662 171.13140106 C-123.87095859 171.13007946 -125.99015283 171.13045742 -128.10934448 171.13266373 C-131.00318853 171.13539867 -133.89696242 171.1319654 -136.790802 171.12698364 C-138.04669433 171.13032973 -138.04669433 171.13032973 -139.32795823 171.13374341 C-143.98921635 171.11819349 -148.40163899 170.77371983 -153 170 C-153 169.34 -153 168.68 -153 168 C-154.65 167.67 -156.3 167.34 -158 167 C-158.12375 166.195625 -158.2475 165.39125 -158.375 164.5625 C-158.58125 163.716875 -158.7875 162.87125 -159 162 C-159.66 161.67 -160.32 161.34 -161 161 C-161 158.36 -161 155.72 -161 153 C-160.34 153 -159.68 153 -159 153 C-158.67 151.02 -158.34 149.04 -158 147 C-157.01 147 -156.02 147 -155 147 C-155 146.01 -155 145.02 -155 144 C-154.01 144 -153.02 144 -152 144 C-152 143.01 -152 142.02 -152 141 C-151.01 141 -150.02 141 -149 141 C-149 140.01 -149 139.02 -149 138 C-148.01 138 -147.02 138 -146 138 C-146 137.01 -146 136.02 -146 135 C-145.01 135 -144.02 135 -143 135 C-143 134.01 -143 133.02 -143 132 C-142.01 132 -141.02 132 -140 132 C-140 131.34 -140 130.68 -140 130 C-138.35 129.67 -136.7 129.34 -135 129 C-135 128.01 -135 127.02 -135 126 C-134.01 126 -133.02 126 -132 126 C-132 125.01 -132 124.02 -132 123 C-131.01 123 -130.02 123 -129 123 C-129 122.01 -129 121.02 -129 120 C-128.01 120 -127.02 120 -126 120 C-126 119.01 -126 118.02 -126 117 C-125.01 117 -124.02 117 -123 117 C-123 116.34 -123 115.68 -123 115 C-121.34997172 113.64613064 -119.6825613 112.31321858 -118 111 C-117.67 110.34 -117.34 109.68 -117 109 C-116.01 109 -115.02 109 -114 109 C-114 108.01 -114 107.02 -114 106 C-113.01 106 -112.02 106 -111 106 C-111 105.01 -111 104.02 -111 103 C-108.525 102.505 -108.525 102.505 -106 102 C-106 101.34 -106 100.68 -106 100 C-105.01 100 -104.02 100 -103 100 C-103 99.01 -103 98.02 -103 97 C-102.01 97 -101.02 97 -100 97 C-100 96.01 -100 95.02 -100 94 C-99.01 94 -98.02 94 -97 94 C-97 93.01 -97 92.02 -97 91 C-96.01 91 -95.02 91 -94 91 C-94 90.01 -94 89.02 -94 88 C-93.01 88 -92.02 88 -91 88 C-91 87.01 -91 86.02 -91 85 C-90.01 85 -89.02 85 -88 85 C-88 84.01 -88 83.02 -88 82 C-87.01 82 -86.02 82 -85 82 C-85 81.01 -85 80.02 -85 79 C-84.01 79 -83.02 79 -82 79 C-82 78.01 -82 77.02 -82 76 C-81.01 76 -80.02 76 -79 76 C-79 75.34 -79 74.68 -79 74 C-77.33784732 72.66104368 -75.67036393 71.32869858 -74 70 C-73.34 69.175 -72.68 68.35 -72 67.5 C-69.89680365 64.87100457 -67.62100457 63.09680365 -65 61 C-63.948125 59.63875 -63.948125 59.63875 -62.875 58.25 C-62.25625 57.5075 -61.6375 56.765 -61 56 C-60.01 56 -59.02 56 -58 56 C-58 55.01 -58 54.02 -58 53 C-57.01 53 -56.02 53 -55 53 C-55 52.01 -55 51.02 -55 50 C-54.34 50 -53.68 50 -53 50 C-52.67 49.01 -52.34 48.02 -52 47 C-51.34 47 -50.68 47 -50 47 C-50 46.34 -50 45.68 -50 45 C-48.35 44.67 -46.7 44.34 -45 44 C-44.67 42.35 -44.34 40.7 -44 39 C-42.35 38.67 -40.7 38.34 -39 38 C-38.67 37.01 -38.34 36.02 -38 35 C-37.01 35 -36.02 35 -35 35 C-35 34.01 -35 33.02 -35 32 C-34.34 32 -33.68 32 -33 32 C-32.67 31.01 -32.34 30.02 -32 29 C-31.34 29 -30.68 29 -30 29 C-29.67 28.01 -29.34 27.02 -29 26 C-28.34 26 -27.68 26 -27 26 C-26.67 25.01 -26.34 24.02 -26 23 C-25.34 23 -24.68 23 -24 23 C-24 22.34 -24 21.68 -24 21 C-23.01 21 -22.02 21 -21 21 C-21 20.01 -21 19.02 -21 18 C-20.01 18 -19.02 18 -18 18 C-18 17.01 -18 16.02 -18 15 C-17.01 15 -16.02 15 -15 15 C-15 14.01 -15 13.02 -15 12 C-14.01 12 -13.02 12 -12 12 C-12 11.01 -12 10.02 -12 9 C-11.01 9 -10.02 9 -9 9 C-9 8.01 -9 7.02 -9 6 C-8.01 6 -7.02 6 -6 6 C-6 5.01 -6 4.02 -6 3 C-4.35 3 -2.7 3 -1 3 C-0.67 2.01 -0.34 1.02 0 0 Z " fill="#000000" transform="translate(1131,1072)"/>
<path d="M0 0 C91.08 0 182.16 0 276 0 C276 0.99 276 1.98 276 3 C276.99 3 277.98 3 279 3 C279 4.98 279 6.96 279 9 C279.99 9 280.98 9 282 9 C282 10.65 282 12.3 282 14 C282.99 14.33 283.98 14.66 285 15 C285 16.98 285 18.96 285 21 C285.66 21 286.32 21 287 21 C287.33 23.97 287.66 26.94 288 30 C288.66 30 289.32 30 290 30 C290.33 32.64 290.66 35.28 291 38 C291.66 38 292.32 38 293 38 C293.33 39.98 293.66 41.96 294 44 C294.66 44 295.32 44 296 44 C296.33 46.97 296.66 49.94 297 53 C297.66 53 298.32 53 299 53 C299.12375 53.804375 299.2475 54.60875 299.375 55.4375 C299.58125 56.283125 299.7875 57.12875 300 58 C300.66 58.33 301.32 58.66 302 59 C302.59355614 61.64860427 302.74209269 64.29197322 303 67 C303.66 67 304.32 67 305 67 C305.12375 67.969375 305.2475 68.93875 305.375 69.9375 C305.684375 71.4534375 305.684375 71.4534375 306 73 C306.66 73.33 307.32 73.66 308 74 C308 76.64 308 79.28 308 82 C308.99 82 309.98 82 311 82 C311.33 84.64 311.66 87.28 312 90 C312.66 90 313.32 90 314 90 C314 92.31 314 94.62 314 97 C314.99 97 315.98 97 317 97 C317 98.98 317 100.96 317 103 C317.66 103 318.32 103 319 103 C320.35439668 105.70879335 320.06501451 108.00933268 320 111 C320.99 111.33 321.98 111.66 323 112 C323 114.64 323 117.28 323 120 C323.99 120 324.98 120 326 120 C326 121.98 326 123.96 326 126 C326.66 126 327.32 126 328 126 C328.33 128.64 328.66 131.28 329 134 C329.99 134.33 330.98 134.66 332 135 C332 136.65 332 138.3 332 140 C332.66 140 333.32 140 334 140 C334.33 142.31 334.66 144.62 335 147 C335.66 147 336.32 147 337 147 C337.33 149.64 337.66 152.28 338 155 C338.66 155 339.32 155 340 155 C340.12375 155.969375 340.2475 156.93875 340.375 157.9375 C340.58125 158.948125 340.7875 159.95875 341 161 C341.66 161.33 342.32 161.66 343 162 C343.59355614 164.64860427 343.74209269 167.29197322 344 170 C344.66 170 345.32 170 346 170 C346 171.98 346 173.96 346 176 C346.99 176 347.98 176 349 176 C349.33 178.64 349.66 181.28 350 184 C350.66 184 351.32 184 352 184 C352 185.98 352 187.96 352 190 C352.99 190 353.98 190 355 190 C355 192.97 355 195.94 355 199 C355.99 199 356.98 199 358 199 C358 200.98 358 202.96 358 205 C358.99 205 359.98 205 361 205 C361 207.64 361 210.28 361 213 C361.99 213.33 362.98 213.66 364 214 C364 215.98 364 217.96 364 220 C364.66 220 365.32 220 366 220 C367.35439668 222.70879335 367.06501451 225.00933268 367 228 C367.99 228.33 368.98 228.66 370 229 C370 230.98 370 232.96 370 235 C370.66 235 371.32 235 372 235 C373.35439668 237.70879335 373.06501451 240.00933268 373 243 C373.66 243 374.32 243 375 243 C375.33 244.98 375.66 246.96 376 249 C376.66 249 377.32 249 378 249 C378.33 251.64 378.66 254.28 379 257 C379.66 257 380.32 257 381 257 C381.33 259.31 381.66 261.62 382 264 C382.66 264 383.32 264 384 264 C384.33 266.64 384.66 269.28 385 272 C385.66 272 386.32 272 387 272 C387 273.98 387 275.96 387 278 C387.99 278 388.98 278 390 278 C390.12375 278.969375 390.2475 279.93875 390.375 280.9375 C390.58125 281.948125 390.7875 282.95875 391 284 C391.66 284.33 392.32 284.66 393 285 C393 287.64 393 290.28 393 293 C393.99 293 394.98 293 396 293 C396 294.98 396 296.96 396 299 C396.99 299 397.98 299 399 299 C399 301.97 399 304.94 399 308 C399.99 308 400.98 308 402 308 C402 310.64 402 313.28 402 316 C402.99 316 403.98 316 405 316 C405 317.98 405 319.96 405 322 C405.66 322 406.32 322 407 322 C407.33 323.98 407.66 325.96 408 328 C408.66 328 409.32 328 410 328 C410.33 330.97 410.66 333.94 411 337 C411.66 337 412.32 337 413 337 C413.33 338.98 413.66 340.96 414 343 C414.66 343 415.32 343 416 343 C416.33 345.64 416.66 348.28 417 351 C417.66 351 418.32 351 419 351 C419.33 353.31 419.66 355.62 420 358 C420.66 358 421.32 358 422 358 C422.33 360.64 422.66 363.28 423 366 C423.66 366 424.32 366 425 366 C425 367.98 425 369.96 425 372 C425.99 372 426.98 372 428 372 C428.33 374.97 428.66 377.94 429 381 C429.66 381 430.32 381 431 381 C431 382.98 431 384.96 431 387 C431.99 387 432.98 387 434 387 C434.33 389.64 434.66 392.28 435 395 C435.66 395 436.32 395 437 395 C437.12375 395.969375 437.2475 396.93875 437.375 397.9375 C437.58125 398.948125 437.7875 399.95875 438 401 C438.66 401.33 439.32 401.66 440 402 C440 403.98 440 405.96 440 408 C440.66 408 441.32 408 442 408 C443.35439668 410.70879335 443.06501451 413.00933268 443 416 C443.99 416 444.98 416 446 416 C446 418.64 446 421.28 446 424 C446.99 424.33 447.98 424.66 449 425 C449 426.98 449 428.96 449 431 C449.66 431 450.32 431 451 431 C451.33 432.98 451.66 434.96 452 437 C452.66 437 453.32 437 454 437 C454.33 439.64 454.66 442.28 455 445 C455.66 445 456.32 445 457 445 C457.33 447.31 457.66 449.62 458 452 C458.66 452 459.32 452 460 452 C460.33 454.64 460.66 457.28 461 460 C461.66 460 462.32 460 463 460 C463.33 461.98 463.66 463.96 464 466 C464.66 466 465.32 466 466 466 C466.33 468.97 466.66 471.94 467 475 C467.66 475 468.32 475 469 475 C469.12375 475.804375 469.2475 476.60875 469.375 477.4375 C469.58125 478.283125 469.7875 479.12875 470 480 C470.66 480.33 471.32 480.66 472 481 C472 483.64 472 486.28 472 489 C472.99 489 473.98 489 475 489 C475.12375 489.969375 475.2475 490.93875 475.375 491.9375 C475.58125 492.948125 475.7875 493.95875 476 495 C476.66 495.33 477.32 495.66 478 496 C478 498.64 478 501.28 478 504 C478.99 504 479.98 504 481 504 C481 505.98 481 507.96 481 510 C481.66 510 482.32 510 483 510 C483.33 511.65 483.66 513.3 484 515 C483.01 515 482.02 515 481 515 C481 515.99 481 516.98 481 518 C473.03303471 519.5968645 473.03303471 519.5968645 469.1875 517.375 C463 510.65714286 463 510.65714286 463 507 C462.01 507 461.02 507 460 507 C460 506.01 460 505.02 460 504 C459.01 504 458.02 504 457 504 C457 503.01 457 502.02 457 501 C456.01 501 455.02 501 454 501 C454 500.01 454 499.02 454 498 C453.01 498 452.02 498 451 498 C451 497.01 451 496.02 451 495 C450.34 495 449.68 495 449 495 C447.375 493.6875 447.375 493.6875 446 492 C446 491.01 446 490.02 446 489 C445.01 489 444.02 489 443 489 C443 488.01 443 487.02 443 486 C442.01 486 441.02 486 440 486 C440 485.01 440 484.02 440 483 C439.01 483 438.02 483 437 483 C437 482.01 437 481.02 437 480 C436.01 480 435.02 480 434 480 C434 479.01 434 478.02 434 477 C433.01 477 432.02 477 431 477 C431 476.01 431 475.02 431 474 C430.34 474 429.68 474 429 474 C425 469.64705882 425 469.64705882 425 466 C424.01 466 423.02 466 422 466 C422 465.01 422 464.02 422 463 C421.01 463 420.02 463 419 463 C419 462.01 419 461.02 419 460 C418.01 460 417.02 460 416 460 C416 459.01 416 458.02 416 457 C415.01 457 414.02 457 413 457 C413 456.01 413 455.02 413 454 C412.34 454 411.68 454 411 454 C409.64613064 452.34997172 408.31321858 450.6825613 407 449 C406.34 448.67 405.68 448.34 405 448 C405 447.01 405 446.02 405 445 C404.01 445 403.02 445 402 445 C402 444.01 402 443.02 402 442 C401.01 442 400.02 442 399 442 C399 441.01 399 440.02 399 439 C398.01 439 397.02 439 396 439 C396 438.01 396 437.02 396 436 C395.01 436 394.02 436 393 436 C393 435.01 393 434.02 393 433 C392.01 433 391.02 433 390 433 C390 432.01 390 431.02 390 430 C389.01 430 388.02 430 387 430 C387 429.01 387 428.02 387 427 C386.34 427 385.68 427 385 427 C383.66104368 425.33784732 382.32869858 423.67036393 381 422 C380.113125 421.319375 379.22625 420.63875 378.3125 419.9375 C375.78833803 417.82266159 375.63492919 417.06882441 375 414 C374.01 413.67 373.02 413.34 372 413 C372 412.34 372 411.68 372 411 C371.01 410.67 370.02 410.34 369 410 C369 409.34 369 408.68 369 408 C368.34 408 367.68 408 367 408 C366.67 407.01 366.34 406.02 366 405 C364.33729713 403.66172696 362.67083819 402.32810215 361 401 C361 400.34 361 399.68 361 399 C360.01 399 359.02 399 358 399 C358 398.01 358 397.02 358 396 C357.01 396 356.02 396 355 396 C355 395.01 355 394.02 355 393 C354.01 392.67 353.02 392.34 352 392 C352 391.34 352 390.68 352 390 C351.01 389.67 350.02 389.34 349 389 C349 388.34 349 387.68 349 387 C348.01 386.67 347.02 386.34 346 386 C346 385.34 346 384.68 346 384 C345.01 383.67 344.02 383.34 343 383 C343 382.34 343 381.68 343 381 C342.34 381 341.68 381 341 381 C341 380.01 341 379.02 341 378 C340.01 378 339.02 378 338 378 C338 377.01 338 376.02 338 375 C337.01 375 336.02 375 335 375 C335 374.01 335 373.02 335 372 C334.01 372 333.02 372 332 372 C331.67 370.35 331.34 368.7 331 367 C329.35 366.67 327.7 366.34 326 366 C325.67 364.35 325.34 362.7 325 361 C324.34 361 323.68 361 323 361 C323 360.01 323 359.02 323 358 C322.01 358 321.02 358 320 358 C320 357.01 320 356.02 320 355 C319.01 355 318.02 355 317 355 C317 354.01 317 353.02 317 352 C316.01 352 315.02 352 314 352 C314 351.01 314 350.02 314 349 C313.01 349 312.02 349 311 349 C311 348.01 311 347.02 311 346 C310.01 346 309.02 346 308 346 C308 345.01 308 344.02 308 343 C307.01 343 306.02 343 305 343 C305 342.01 305 341.02 305 340 C304.01 340 303.02 340 302 340 C302 339.01 302 338.02 302 337 C301.01 337 300.02 337 299 337 C299 336.01 299 335.02 299 334 C298.34 334 297.68 334 297 334 C295.375 332.6875 295.375 332.6875 294 331 C294 330.01 294 329.02 294 328 C293.01 328 292.02 328 291 328 C291 327.01 291 326.02 291 325 C290.01 325 289.02 325 288 325 C288 324.01 288 323.02 288 322 C287.01 322 286.02 322 285 322 C285 321.01 285 320.02 285 319 C284.01 319 283.02 319 282 319 C282 318.01 282 317.02 282 316 C281.01 316 280.02 316 279 316 C279 315.01 279 314.02 279 313 C278.01 313 277.02 313 276 313 C276 312.01 276 311.02 276 310 C275.01 310 274.02 310 273 310 C273 308.35 273 306.7 273 305 C272.01 305 271.02 305 270 305 C270 304.01 270 303.02 270 302 C269.01 302 268.02 302 267 302 C267 301.01 267 300.02 267 299 C266.01 299 265.02 299 264 299 C264 298.01 264 297.02 264 296 C263.01 296 262.02 296 261 296 C261 295.01 261 294.02 261 293 C260.01 293 259.02 293 258 293 C258 292.01 258 291.02 258 290 C257.01 290 256.02 290 255 290 C255 289.01 255 288.02 255 287 C254.01 287 253.02 287 252 287 C252 286.01 252 285.02 252 284 C251.01 284 250.02 284 249 284 C249 283.01 249 282.02 249 281 C248.34 281 247.68 281 247 281 C245.64613064 279.34997172 244.31321858 277.6825613 243 276 C242.34 275.67 241.68 275.34 241 275 C241 274.01 241 273.02 241 272 C240.01 272 239.02 272 238 272 C238 271.01 238 270.02 238 269 C237.01 269 236.02 269 235 269 C235 268.01 235 267.02 235 266 C234.01 266 233.02 266 232 266 C232 265.01 232 264.02 232 263 C231.01 263 230.02 263 229 263 C229 262.01 229 261.02 229 260 C228.34 260 227.68 260 227 260 C226.67 258.35 226.34 256.7 226 255 C225.01 255 224.02 255 223 255 C223 254.01 223 253.02 223 252 C222.01 252 221.02 252 220 252 C220 251.01 220 250.02 220 249 C219.01 249 218.02 249 217 249 C217 248.01 217 247.02 217 246 C216.01 246 215.02 246 214 246 C214 245.01 214 244.02 214 243 C213.01 243 212.02 243 211 243 C211 242.01 211 241.02 211 240 C210.01 240 209.02 240 208 240 C208 239.01 208 238.02 208 237 C207.01 237 206.02 237 205 237 C205 236.01 205 235.02 205 234 C204.34 234 203.68 234 203 234 C201.66104368 232.33784732 200.32869858 230.67036393 199 229 C198.0925 228.278125 197.185 227.55625 196.25 226.8125 C195.5075 226.214375 194.765 225.61625 194 225 C194 224.34 194 223.68 194 223 C193.01 223 192.02 223 191 223 C191 222.01 191 221.02 191 220 C190.01 220 189.02 220 188 220 C188 219.01 188 218.02 188 217 C187.01 217 186.02 217 185 217 C185 216.01 185 215.02 185 214 C184.01 214 183.02 214 182 214 C182 213.01 182 212.02 182 211 C181.01 211 180.02 211 179 211 C179 210.01 179 209.02 179 208 C178.34 208 177.68 208 177 208 C177 207.01 177 206.02 177 205 C176.01 205 175.02 205 174 205 C173.67 203.35 173.34 201.7 173 200 C172.01 199.67 171.02 199.34 170 199 C170 198.34 170 197.68 170 197 C169.01 196.67 168.02 196.34 167 196 C167 195.34 167 194.68 167 194 C166.01 193.67 165.02 193.34 164 193 C164 192.34 164 191.68 164 191 C163.01 190.67 162.02 190.34 161 190 C161 189.34 161 188.68 161 188 C160.01 187.67 159.02 187.34 158 187 C158 186.34 158 185.68 158 185 C157.34 185 156.68 185 156 185 C156 184.01 156 183.02 156 182 C155.01 182 154.02 182 153 182 C153 181.01 153 180.02 153 179 C152.01 179 151.02 179 150 179 C150 178.01 150 177.02 150 176 C149.01 176 148.02 176 147 176 C147 175.01 147 174.02 147 173 C146.01 173 145.02 173 144 173 C144 172.01 144 171.02 144 170 C143.01 170 142.02 170 141 170 C141 169.01 141 168.02 141 167 C140.01 167 139.02 167 138 167 C138 166.01 138 165.02 138 164 C137.01 164 136.02 164 135 164 C135 163.01 135 162.02 135 161 C134.34 161 133.68 161 133 161 C131.64613064 159.34997172 130.31321858 157.6825613 129 156 C128.34 155.67 127.68 155.34 127 155 C127 154.01 127 153.02 127 152 C126.01 152 125.02 152 124 152 C124 151.01 124 150.02 124 149 C123.01 149 122.02 149 121 149 C121 148.01 121 147.02 121 146 C120.01 146 119.02 146 118 146 C117.505 143.525 117.505 143.525 117 141 C116.01 140.67 115.02 140.34 114 140 C114 139.34 114 138.68 114 138 C113.01 137.67 112.02 137.34 111 137 C111 136.34 111 135.68 111 135 C110.34 135 109.68 135 109 135 C109 134.01 109 133.02 109 132 C108.01 132 107.02 132 106 132 C106 131.01 106 130.02 106 129 C105.01 129 104.02 129 103 129 C103 128.01 103 127.02 103 126 C102.01 126 101.02 126 100 126 C100 125.01 100 124.02 100 123 C99.01 123 98.02 123 97 123 C97 122.01 97 121.02 97 120 C96.01 120 95.02 120 94 120 C94 119.01 94 118.02 94 117 C93.01 117 92.02 117 91 117 C91 116.01 91 115.02 91 114 C90.01 114 89.02 114 88 114 C88 113.01 88 112.02 88 111 C87.34 111 86.68 111 86 111 C84.66104368 109.33784732 83.32869858 107.67036393 82 106 C80.35704805 104.63755204 78.69175663 103.30135125 77 102 C75.1875 100.375 75.1875 100.375 74 99 C74 98.34 74 97.68 74 97 C73.01 97 72.02 97 71 97 C71 96.01 71 95.02 71 94 C70.01 94 69.02 94 68 94 C68 92.68 68 91.36 68 90 C67.01 90 66.02 90 65 90 C65 89.01 65 88.02 65 87 C64.34 87 63.68 87 63 87 C59 82.52941176 59 82.52941176 59 80 C58.01 79.67 57.02 79.34 56 79 C56 78.34 56 77.68 56 77 C55.01 76.67 54.02 76.34 53 76 C53 75.34 53 74.68 53 74 C52.01 73.67 51.02 73.34 50 73 C50 72.34 50 71.68 50 71 C49.01 70.67 48.02 70.34 47 70 C47 69.34 47 68.68 47 68 C46.01 67.67 45.02 67.34 44 67 C44 66.34 44 65.68 44 65 C43.01 64.67 42.02 64.34 41 64 C41 63.34 41 62.68 41 62 C40.34 62 39.68 62 39 62 C39 61.01 39 60.02 39 59 C38.01 59 37.02 59 36 59 C36 58.01 36 57.02 36 56 C35.01 56 34.02 56 33 56 C33 55.01 33 54.02 33 53 C32.01 53 31.02 53 30 53 C30 52.01 30 51.02 30 50 C29.01 50 28.02 50 27 50 C27 49.01 27 48.02 27 47 C26.01 47 25.02 47 24 47 C24 46.01 24 45.02 24 44 C23.01 44 22.02 44 21 44 C21 43.01 21 42.02 21 41 C20.01 41 19.02 41 18 41 C18 40.01 18 39.02 18 38 C17.01 38 16.02 38 15 38 C15 37.01 15 36.02 15 35 C14.01 35 13.02 35 12 35 C12 34.01 12 33.02 12 32 C11.01 32 10.02 32 9 32 C9 31.01 9 30.02 9 29 C8.34 29 7.68 29 7 29 C5.66104368 27.33784732 4.32869858 25.67036393 3 24 C2.113125 23.360625 1.22625 22.72125 0.3125 22.0625 C-2.57677307 19.48558078 -2.74209687 17.78257924 -3 14 C-3.66 14 -4.32 14 -5 14 C-5 11.36 -5 8.72 -5 6 C-4.34 6 -3.68 6 -3 6 C-2.67 4.68 -2.34 3.36 -2 2 C-1.34 2 -0.68 2 0 2 C0 1.34 0 0.68 0 0 Z " fill="#000000" transform="translate(978,1292)"/>
<path d="M0 0 C110.22 0 220.44 0 334 0 C334 0.99 334 1.98 334 3 C334.99 3 335.98 3 337 3 C337 3.99 337 4.98 337 6 C337.99 6 338.98 6 340 6 C340 6.99 340 7.98 340 9 C340.66 9 341.32 9 342 9 C343.24377393 11.48754786 343.13306235 13.22655301 343.125 16 C343.12757813 16.886875 343.13015625 17.77375 343.1328125 18.6875 C343 21 343 21 342 23 C341.34 23 340.68 23 340 23 C340 25.97 340 28.94 340 32 C339.01 32 338.02 32 337 32 C337 33.98 337 35.96 337 38 C336.01 38 335.02 38 334 38 C334 40.97 334 43.94 334 47 C333.01 47 332.02 47 331 47 C331 49.64 331 52.28 331 55 C330.01 55 329.02 55 328 55 C328 57.31 328 59.62 328 62 C327.01 62 326.02 62 325 62 C325 64.64 325 67.28 325 70 C324.34 70.33 323.68 70.66 323 71 C322.34227572 74.02934491 322.34227572 74.02934491 322 77 C321.34 77 320.68 77 320 77 C319.67 79.64 319.34 82.28 319 85 C318.34 85 317.68 85 317 85 C316.67 87.64 316.34 90.28 316 93 C315.34 93 314.68 93 314 93 C313.67 95.31 313.34 97.62 313 100 C312.34 100 311.68 100 311 100 C310.67 102.64 310.34 105.28 310 108 C309.34 108 308.68 108 308 108 C307.67 110.97 307.34 113.94 307 117 C306.34 117 305.68 117 305 117 C305 118.98 305 120.96 305 123 C304.01 123 303.02 123 302 123 C301.67 125.97 301.34 128.94 301 132 C300.34 132 299.68 132 299 132 C299 133.98 299 135.96 299 138 C298.01 138 297.02 138 296 138 C296 140.97 296 143.94 296 147 C295.01 147 294.02 147 293 147 C293 149.64 293 152.28 293 155 C292.01 155 291.02 155 290 155 C290 157.97 290 160.94 290 164 C289.01 164 288.02 164 287 164 C287 165.98 287 167.96 287 170 C286.34 170 285.68 170 285 170 C284.67 172.97 284.34 175.94 284 179 C283.01 179 282.02 179 281 179 C281 181.64 281 184.28 281 187 C280.34 187.33 279.68 187.66 279 188 C278.34227572 191.02934491 278.34227572 191.02934491 278 194 C277.34 194 276.68 194 276 194 C275.67 196.64 275.34 199.28 275 202 C274.34 202 273.68 202 273 202 C272.67 203.98 272.34 205.96 272 208 C271.34 208 270.68 208 270 208 C269.67 210.97 269.34 213.94 269 217 C268.34 217 267.68 217 267 217 C266.67 219.64 266.34 222.28 266 225 C265.34 225 264.68 225 264 225 C264 226.98 264 228.96 264 231 C263.01 231.33 262.02 231.66 261 232 C261 234.64 261 237.28 261 240 C260.01 240 259.02 240 258 240 C258 242.97 258 245.94 258 249 C257.01 249 256.02 249 255 249 C255 250.98 255 252.96 255 255 C254.01 255 253.02 255 252 255 C252 257.97 252 260.94 252 264 C251.01 264 250.02 264 249 264 C249 266.64 249 269.28 249 272 C248.01 272 247.02 272 246 272 C246 274.31 246 276.62 246 279 C245.34 279 244.68 279 244 279 C243.67 281.64 243.34 284.28 243 287 C242.34 287 241.68 287 241 287 C240.67 289.97 240.34 292.94 240 296 C239.01 296 238.02 296 237 296 C237 297.98 237 299.96 237 302 C236.34 302 235.68 302 235 302 C234.67 304.97 234.34 307.94 234 311 C233.34 311 232.68 311 232 311 C231.67 313.64 231.34 316.28 231 319 C230.34 319 229.68 319 229 319 C228.67 320.98 228.34 322.96 228 325 C227.34 325 226.68 325 226 325 C225.67 327.97 225.34 330.94 225 334 C224.34 334 223.68 334 223 334 C223.020625 334.94875 223.04125 335.8975 223.0625 336.875 C223 340 223 340 222 342 C221.34 342 220.68 342 220 342 C220 343.98 220 345.96 220 348 C219.01 348.33 218.02 348.66 217 349 C217 351.64 217 354.28 217 357 C216.01 357 215.02 357 214 357 C214.0309375 358.670625 214.0309375 358.670625 214.0625 360.375 C214 364 214 364 213 366 C212.34 366 211.68 366 211 366 C211 367.98 211 369.96 211 372 C210.01 372 209.02 372 208 372 C208 374.97 208 377.94 208 381 C207.01 381 206.02 381 205 381 C205 382.98 205 384.96 205 387 C204.34 387 203.68 387 203 387 C202.814375 388.9490625 202.814375 388.9490625 202.625 390.9375 C202.4140625 393.15234375 202.4140625 393.15234375 202 395 C201.34 395.33 200.68 395.66 200 396 C199.34227572 399.02934491 199.34227572 399.02934491 199 402 C198.34 402 197.68 402 197 402 C196.67 404.64 196.34 407.28 196 410 C195.34 410 194.68 410 194 410 C193.67 412.97 193.34 415.94 193 419 C192.34 419 191.68 419 191 419 C190.67 420.98 190.34 422.96 190 425 C189.34 425 188.68 425 188 425 C187.67 427.97 187.34 430.94 187 434 C186.34 434 185.68 434 185 434 C184.67 436.64 184.34 439.28 184 442 C183.34 442 182.68 442 182 442 C182 443.98 182 445.96 182 448 C181.01 448.33 180.02 448.66 179 449 C178.67 451.64 178.34 454.28 178 457 C177.34 457 176.68 457 176 457 C176.020625 457.94875 176.04125 458.8975 176.0625 459.875 C176 463 176 463 175 465 C174.34 465 173.68 465 173 465 C172.67 466.98 172.34 468.96 172 471 C171.34 471 170.68 471 170 471 C170 472.32 170 473.64 170 475 C169.01 475 168.02 475 167 475 C167 475.99 167 476.98 167 478 C166.01 477.67 165.02 477.34 164 477 C164 476.34 164 475.68 164 475 C163.01 475 162.02 475 161 475 C161 473.02 161 471.04 161 469 C160.01 468.67 159.02 468.34 158 468 C158 465.36 158 462.72 158 460 C157.01 460 156.02 460 155 460 C155 458.02 155 456.04 155 454 C154.34 454 153.68 454 153 454 C152.67 451.03 152.34 448.06 152 445 C151.34 445 150.68 445 150 445 C149.67 442.36 149.34 439.72 149 437 C148.34 437 147.68 437 147 437 C146.67 434.69 146.34 432.38 146 430 C145.34 430 144.68 430 144 430 C143.67 427.36 143.34 424.72 143 422 C142.34 422 141.68 422 141 422 C140.67 419.03 140.34 416.06 140 413 C139.34 413 138.68 413 138 413 C137.67 410.36 137.34 407.72 137 405 C136.34 405 135.68 405 135 405 C134.814375 403.5459375 134.814375 403.5459375 134.625 402.0625 C134.41875 401.051875 134.2125 400.04125 134 399 C133.34 398.67 132.68 398.34 132 398 C132 395.36 132 392.72 132 390 C131.01 390 130.02 390 129 390 C129 387.69 129 385.38 129 383 C128.01 383 127.02 383 126 383 C126 380.36 126 377.72 126 375 C125.01 375 124.02 375 123 375 C123 372.03 123 369.06 123 366 C122.01 366 121.02 366 120 366 C120 364.02 120 362.04 120 360 C119.34 360 118.68 360 118 360 C116.5216774 357.04335481 116.93967217 354.25770263 117 351 C116.34 351 115.68 351 115 351 C113.64560332 348.29120665 113.93498549 345.99066732 114 343 C113.34 343 112.68 343 112 343 C111.67 340.03 111.34 337.06 111 334 C110.34 334 109.68 334 109 334 C108.67 332.02 108.34 330.04 108 328 C107.34 328 106.68 328 106 328 C105.67 325.03 105.34 322.06 105 319 C104.34 319 103.68 319 103 319 C102.67 316.36 102.34 313.72 102 311 C101.34 311 100.68 311 100 311 C99.505 307.535 99.505 307.535 99 304 C98.34 304 97.68 304 97 304 C97 301.36 97 298.72 97 296 C96.01 296 95.02 296 94 296 C93.67 293.03 93.34 290.06 93 287 C92.34 287 91.68 287 91 287 C91 285.02 91 283.04 91 281 C90.01 281 89.02 281 88 281 C87.8046875 278.94921875 87.609375 276.8984375 87.4140625 274.84765625 C87.27742188 274.23792969 87.14078125 273.62820313 87 273 C86.34 272.67 85.68 272.34 85 272 C85 269.36 85 266.72 85 264 C84.01 264 83.02 264 82 264 C82 261.69 82 259.38 82 257 C81.34 257 80.68 257 80 257 C78.64560332 254.29120665 78.93498549 251.99066732 79 249 C78.01 249 77.02 249 76 249 C76 246.36 76 243.72 76 241 C75.01 240.67 74.02 240.34 73 240 C73 238.02 73 236.04 73 234 C72.34 234 71.68 234 71 234 C70.67 231.36 70.34 228.72 70 226 C69.34 226 68.68 226 68 226 C67.505 221.545 67.505 221.545 67 217 C66.34 217 65.68 217 65 217 C64.505 212.545 64.505 212.545 64 208 C63.34 208 62.68 208 62 208 C61.67 206.02 61.34 204.04 61 202 C60.34 202 59.68 202 59 202 C58.505 197.545 58.505 197.545 58 193 C57.34 193 56.68 193 56 193 C55.67 190.36 55.34 187.72 55 185 C54.34 185 53.68 185 53 185 C52.87625 184.030625 52.7525 183.06125 52.625 182.0625 C52.41875 181.051875 52.2125 180.04125 52 179 C51.34 178.67 50.68 178.34 50 178 C50 175.36 50 172.72 50 170 C49.01 170 48.02 170 47 170 C47 168.02 47 166.04 47 164 C46.01 164 45.02 164 44 164 C44 161.03 44 158.06 44 155 C43.01 155 42.02 155 41 155 C41 152.36 41 149.72 41 147 C40.01 146.67 39.02 146.34 38 146 C38 143.36 38 140.72 38 138 C37.01 138 36.02 138 35 138 C35 135.69 35 133.38 35 131 C34.34 131 33.68 131 33 131 C31.64560332 128.29120665 31.93498549 125.99066732 32 123 C31.01 123 30.02 123 29 123 C29 120.36 29 117.72 29 115 C28.01 114.67 27.02 114.34 26 114 C26 112.02 26 110.04 26 108 C25.34 108 24.68 108 24 108 C23.505 104.04 23.505 104.04 23 100 C22.34 100 21.68 100 21 100 C20.67 97.69 20.34 95.38 20 93 C19.34 93 18.68 93 18 93 C17.67 90.36 17.34 87.72 17 85 C16.34 85 15.68 85 15 85 C14.67 82.03 14.34 79.06 14 76 C13.34 76 12.68 76 12 76 C11.67 73.36 11.34 70.72 11 68 C10.34 68 9.68 68 9 68 C8.87625 67.030625 8.7525 66.06125 8.625 65.0625 C8.41875 64.051875 8.2125 63.04125 8 62 C7.34 61.67 6.68 61.34 6 61 C6 58.36 6 55.72 6 53 C5.01 53 4.02 53 3 53 C3 51.02 3 49.04 3 47 C2.01 47 1.02 47 0 47 C0 44.03 0 41.06 0 38 C-0.99 38 -1.98 38 -3 38 C-3 35.36 -3 32.72 -3 30 C-3.99 30 -4.98 30 -6 30 C-6 27.69 -6 25.38 -6 23 C-6.66 23 -7.32 23 -8 23 C-9.38226016 20.23547967 -9.09525387 17.9538637 -9.0625 14.875 C-9.05347656 13.77929688 -9.04445313 12.68359375 -9.03515625 11.5546875 C-9.02355469 10.71164062 -9.01195312 9.86859375 -9 9 C-8.01 9 -7.02 9 -6 9 C-5.67 7.68 -5.34 6.36 -5 5 C-4.34 5 -3.68 5 -3 5 C-3 4.34 -3 3.68 -3 3 C-2.01 3 -1.02 3 0 3 C0 2.01 0 1.02 0 0 Z " fill="#000000" transform="translate(1333,1292)"/>
<path d="M0 0 C90.75 0 181.5 0 275 0 C275 0.99 275 1.98 275 3 C275.99 3 276.98 3 278 3 C278.19601608 4.74906659 278.38147403 6.49931846 278.5625 8.25 C278.66691406 9.22453125 278.77132813 10.1990625 278.87890625 11.203125 C278.98974468 13.7631352 278.77738092 15.58148159 278 18 C277.34 18 276.68 18 276 18 C275.67 18.99 275.34 19.98 275 21 C274.34 21 273.68 21 273 21 C272.67 21.99 272.34 22.98 272 24 C271.34 24 270.68 24 270 24 C269.67 24.99 269.34 25.98 269 27 C268.34 27 267.68 27 267 27 C266.67 27.99 266.34 28.98 266 30 C265.34 30 264.68 30 264 30 C263.896875 30.763125 263.79375 31.52625 263.6875 32.3125 C262.95288806 35.18416484 262.3283935 36.23042094 260 38 C259.34 38 258.68 38 258 38 C258 38.99 258 39.98 258 41 C257.01 41 256.02 41 255 41 C255 41.99 255 42.98 255 44 C254.01 44 253.02 44 252 44 C252 44.99 252 45.98 252 47 C251.01 47 250.02 47 249 47 C249 47.99 249 48.98 249 50 C248.01 50 247.02 50 246 50 C246 50.66 246 51.32 246 52 C245.34 52.33 244.68 52.66 244 53 C243.67 53.99 243.34 54.98 243 56 C242.01 56 241.02 56 240 56 C240 56.99 240 57.98 240 59 C239.01 59 238.02 59 237 59 C237 59.66 237 60.32 237 61 C236.34 61.33 235.68 61.66 235 62 C234.67 62.99 234.34 63.98 234 65 C233.34 65 232.68 65 232 65 C231.67 65.99 231.34 66.98 231 68 C230.34 68 229.68 68 229 68 C229 68.66 229 69.32 229 70 C228.01 70 227.02 70 226 70 C225.67 71.32 225.34 72.64 225 74 C224.34 74 223.68 74 223 74 C223 74.66 223 75.32 223 76 C222.01 76 221.02 76 220 76 C220 76.99 220 77.98 220 79 C219.01 79 218.02 79 217 79 C216.938125 79.7425 216.87625 80.485 216.8125 81.25 C215.74850088 84.85122777 214.08629328 85.96756296 211 88 C210.34 88 209.68 88 209 88 C208.938125 88.7425 208.87625 89.485 208.8125 90.25 C207.74290323 93.87017367 205.99140387 94.77383898 203 97 C202.34 97.825 201.68 98.65 201 99.5 C198.89680365 102.12899543 196.62100457 103.90319635 194 106 C192.9171875 107.36125 192.9171875 107.36125 191.8125 108.75 C191.214375 109.4925 190.61625 110.235 190 111 C189.34 111 188.68 111 188 111 C188 111.99 188 112.98 188 114 C187.01 114 186.02 114 185 114 C185 114.99 185 115.98 185 117 C184.01 117 183.02 117 182 117 C182 117.99 182 118.98 182 120 C181.01 120 180.02 120 179 120 C179 120.99 179 121.98 179 123 C178.01 123 177.02 123 176 123 C176 123.99 176 124.98 176 126 C175.01 126 174.02 126 173 126 C173 126.99 173 127.98 173 129 C172.01 129 171.02 129 170 129 C170 129.99 170 130.98 170 132 C169.01 132 168.02 132 167 132 C167 132.99 167 133.98 167 135 C166.01 135 165.02 135 164 135 C164 135.99 164 136.98 164 138 C163.34 138 162.68 138 162 138 C161.67 138.99 161.34 139.98 161 141 C160.34 141 159.68 141 159 141 C158.67 141.99 158.34 142.98 158 144 C157.34 144 156.68 144 156 144 C155.67 145.65 155.34 147.3 155 149 C154.01 149 153.02 149 152 149 C152 149.99 152 150.98 152 152 C150.3603279 153.36639342 148.68889872 154.6949419 147 156 C145.9171875 157.36125 145.9171875 157.36125 144.8125 158.75 C144.214375 159.4925 143.61625 160.235 143 161 C142.34 161 141.68 161 141 161 C141 161.99 141 162.98 141 164 C140.01 164 139.02 164 138 164 C138 164.99 138 165.98 138 167 C137.01 167 136.02 167 135 167 C135 167.99 135 168.98 135 170 C134.01 170 133.02 170 132 170 C132 170.99 132 171.98 132 173 C131.01 173 130.02 173 129 173 C129 173.99 129 174.98 129 176 C128.01 176 127.02 176 126 176 C126 176.99 126 177.98 126 179 C125.01 179 124.02 179 123 179 C123 179.99 123 180.98 123 182 C122.01 182 121.02 182 120 182 C120 182.99 120 183.98 120 185 C119.01 185 118.02 185 117 185 C117 185.99 117 186.98 117 188 C116.34 188 115.68 188 115 188 C114.67 188.99 114.34 189.98 114 191 C113.34 191 112.68 191 112 191 C111.67 191.99 111.34 192.98 111 194 C110.34 194 109.68 194 109 194 C108.67 194.99 108.34 195.98 108 197 C107.34 197 106.68 197 106 197 C105.67 197.99 105.34 198.98 105 200 C104.34 200 103.68 200 103 200 C102.67 201.65 102.34 203.3 102 205 C101.01 205 100.02 205 99 205 C99 205.99 99 206.98 99 208 C98.01 208 97.02 208 96 208 C96 208.99 96 209.98 96 211 C95.34 211 94.68 211 94 211 C93.67 211.99 93.34 212.98 93 214 C92.34 214 91.68 214 91 214 C91 214.99 91 215.98 91 217 C90.01 217 89.02 217 88 217 C88 217.99 88 218.98 88 220 C87.01 220 86.02 220 85 220 C85 220.99 85 221.98 85 223 C84.01 223 83.02 223 82 223 C82 223.66 82 224.32 82 225 C81.195625 225.639375 80.39125 226.27875 79.5625 226.9375 C76.76279268 228.81035932 76.76279268 228.81035932 76 232 C75.01 232 74.02 232 73 232 C73 232.66 73 233.32 73 234 C72.34 234 71.68 234 71 234 C71 234.99 71 235.98 71 237 C70.01 237 69.02 237 68 237 C68 237.99 68 238.98 68 240 C67.01 240 66.02 240 65 240 C64.67 241.32 64.34 242.64 64 244 C63.34 244 62.68 244 62 244 C61.67 245.65 61.34 247.3 61 249 C60.01 249 59.02 249 58 249 C58 249.99 58 250.98 58 252 C57.01 252 56.02 252 55 252 C55 252.99 55 253.98 55 255 C54.34 255 53.68 255 53 255 C53 255.66 53 256.32 53 257 C52.01 257 51.02 257 50 257 C50 257.99 50 258.98 50 260 C49.01 260 48.02 260 47 260 C47 260.99 47 261.98 47 263 C46.01 263 45.02 263 44 263 C44 263.99 44 264.98 44 266 C43.01 266 42.02 266 41 266 C41 266.99 41 267.98 41 269 C40.01 269 39.02 269 38 269 C38 269.99 38 270.98 38 272 C37.01 272 36.02 272 35 272 C35 272.99 35 273.98 35 275 C33.37064759 276.37868281 31.70250393 277.71274093 30 279 C29.67 279.66 29.34 280.32 29 281 C28.34 281 27.68 281 27 281 C27 281.99 27 282.98 27 284 C26.01 284 25.02 284 24 284 C24 284.99 24 285.98 24 287 C23.01 287 22.02 287 21 287 C21 287.99 21 288.98 21 290 C20.01 290 19.02 290 18 290 C18 290.99 18 291.98 18 293 C17.01 293 16.02 293 15 293 C15 293.99 15 294.98 15 296 C14.01 296 13.02 296 12 296 C12 296.99 12 297.98 12 299 C11.01 299 10.02 299 9 299 C9 299.99 9 300.98 9 302 C8.01 302 7.02 302 6 302 C6 302.99 6 303.98 6 305 C5.01 305 4.02 305 3 305 C3 306.65 3 308.3 3 310 C2.01 310 1.02 310 0 310 C0 310.99 0 311.98 0 313 C-0.99 313 -1.98 313 -3 313 C-3 313.99 -3 314.98 -3 316 C-3.99 316 -4.98 316 -6 316 C-6 316.99 -6 317.98 -6 319 C-6.99 319 -7.98 319 -9 319 C-9 319.99 -9 320.98 -9 322 C-9.99 322 -10.98 322 -12 322 C-12 322.99 -12 323.98 -12 325 C-12.99 325 -13.98 325 -15 325 C-15 325.99 -15 326.98 -15 328 C-16.3125 329.6875 -16.3125 329.6875 -18 331 C-18.99 331 -19.98 331 -21 331 C-21 331.99 -21 332.98 -21 334 C-21.66 334 -22.32 334 -23 334 C-23 334.99 -23 335.98 -23 337 C-23.99 337 -24.98 337 -26 337 C-26 337.99 -26 338.98 -26 340 C-26.99 340 -27.98 340 -29 340 C-29 340.99 -29 341.98 -29 343 C-29.99 343 -30.98 343 -32 343 C-32 343.99 -32 344.98 -32 346 C-32.99 346 -33.98 346 -35 346 C-35 346.99 -35 347.98 -35 349 C-35.99 349 -36.98 349 -38 349 C-38 349.99 -38 350.98 -38 352 C-38.99 352 -39.98 352 -41 352 C-41 352.99 -41 353.98 -41 355 C-41.66 355 -42.32 355 -43 355 C-43.33 355.99 -43.66 356.98 -44 358 C-44.66 358 -45.32 358 -46 358 C-46.33 359.65 -46.66 361.3 -47 363 C-47.99 363 -48.98 363 -50 363 C-50 363.99 -50 364.98 -50 366 C-50.99 366 -51.98 366 -53 366 C-53 366.99 -53 367.98 -53 369 C-53.99 369 -54.98 369 -56 369 C-56 369.99 -56 370.98 -56 372 C-56.99 372 -57.98 372 -59 372 C-59 372.99 -59 373.98 -59 375 C-59.99 375 -60.98 375 -62 375 C-62 375.99 -62 376.98 -62 378 C-62.99 378 -63.98 378 -65 378 C-65 378.99 -65 379.98 -65 381 C-65.66 381 -66.32 381 -67 381 C-67.33 381.99 -67.66 382.98 -68 384 C-68.66 384 -69.32 384 -70 384 C-70.33 384.99 -70.66 385.98 -71 387 C-71.66 387 -72.32 387 -73 387 C-73.33 387.99 -73.66 388.98 -74 390 C-74.66 390 -75.32 390 -76 390 C-76.33 390.99 -76.66 391.98 -77 393 C-77.66 393 -78.32 393 -79 393 C-79 393.66 -79 394.32 -79 395 C-79.99 395 -80.98 395 -82 395 C-82 395.99 -82 396.98 -82 398 C-82.99 398 -83.98 398 -85 398 C-85 398.99 -85 399.98 -85 401 C-86.6396721 402.36639342 -88.31110128 403.6949419 -90 405 C-91.36244796 406.64295195 -92.69864875 408.30824337 -94 410 C-95.625 411.8125 -95.625 411.8125 -97 413 C-97.66 413 -98.32 413 -99 413 C-99 413.99 -99 414.98 -99 416 C-99.99 416 -100.98 416 -102 416 C-102 416.99 -102 417.98 -102 419 C-102.99 419 -103.98 419 -105 419 C-105 419.99 -105 420.98 -105 422 C-105.99 422 -106.98 422 -108 422 C-108 422.99 -108 423.98 -108 425 C-108.99 425 -109.98 425 -111 425 C-111 425.99 -111 426.98 -111 428 C-111.99 428 -112.98 428 -114 428 C-114 428.99 -114 429.98 -114 431 C-114.99 431 -115.98 431 -117 431 C-117 431.99 -117 432.98 -117 434 C-117.99 434 -118.98 434 -120 434 C-120 435.65 -120 437.3 -120 439 C-120.99 439 -121.98 439 -123 439 C-123 439.99 -123 440.98 -123 442 C-123.99 442 -124.98 442 -126 442 C-126 442.99 -126 443.98 -126 445 C-126.99 445 -127.98 445 -129 445 C-129 445.99 -129 446.98 -129 448 C-129.99 448 -130.98 448 -132 448 C-132 448.99 -132 449.98 -132 451 C-132.99 451 -133.98 451 -135 451 C-135 451.99 -135 452.98 -135 454 C-135.99 454 -136.98 454 -138 454 C-138 454.99 -138 455.98 -138 457 C-138.99 457 -139.98 457 -141 457 C-141 457.99 -141 458.98 -141 460 C-141.66 460 -142.32 460 -143 460 C-143.33 460.99 -143.66 461.98 -144 463 C-144.66 463 -145.32 463 -146 463 C-146 463.99 -146 464.98 -146 466 C-146.99 466 -147.98 466 -149 466 C-149 466.99 -149 467.98 -149 469 C-149.99 469 -150.98 469 -152 469 C-152 469.99 -152 470.98 -152 472 C-152.99 472 -153.98 472 -155 472 C-155 472.99 -155 473.98 -155 475 C-155.99 475 -156.98 475 -158 475 C-158 475.99 -158 476.98 -158 478 C-158.99 478 -159.98 478 -161 478 C-161 478.99 -161 479.98 -161 481 C-161.99 481 -162.98 481 -164 481 C-164 481.99 -164 482.98 -164 484 C-164.99 484 -165.98 484 -167 484 C-167 484.99 -167 485.98 -167 487 C-167.66 487 -168.32 487 -169 487 C-169.33 487.99 -169.66 488.98 -170 490 C-170.66 490 -171.32 490 -172 490 C-172.33 490.99 -172.66 491.98 -173 493 C-173.66 493 -174.32 493 -175 493 C-175.33 493.99 -175.66 494.98 -176 496 C-176.66 496 -177.32 496 -178 496 C-178.12375 496.639375 -178.2475 497.27875 -178.375 497.9375 C-178.58125 498.618125 -178.7875 499.29875 -179 500 C-179.66 500.33 -180.32 500.66 -181 501 C-181.33 501.99 -181.66 502.98 -182 504 C-182.99 504 -183.98 504 -185 504 C-185 504.99 -185 505.98 -185 507 C-185.99 507 -186.98 507 -188 507 C-188 507.99 -188 508.98 -188 510 C-188.66 510 -189.32 510 -190 510 C-190.33 510.99 -190.66 511.98 -191 513 C-191.66 513 -192.32 513 -193 513 C-193.33 513.99 -193.66 514.98 -194 516 C-194.66 516 -195.32 516 -196 516 C-196 516.66 -196 517.32 -196 518 C-197.43410368 518.24954005 -198.87260072 518.47392642 -200.3125 518.6875 C-201.11300781 518.81511719 -201.91351562 518.94273437 -202.73828125 519.07421875 C-205 519 -205 519 -206.77734375 517.7421875 C-208.74438795 514.93930663 -208.24090545 512.31244987 -208 509 C-207.67 508.34 -207.34 507.68 -207 507 C-206.34 507 -205.68 507 -205 507 C-205 505.02 -205 503.04 -205 501 C-204.01 501 -203.02 501 -202 501 C-202 499.02 -202 497.04 -202 495 C-201.34 495 -200.68 495 -200 495 C-199.67 492.03 -199.34 489.06 -199 486 C-198.01 486 -197.02 486 -196 486 C-196 484.02 -196 482.04 -196 480 C-195.34 480 -194.68 480 -194 480 C-193.67 478.02 -193.34 476.04 -193 474 C-192.34 474 -191.68 474 -191 474 C-190.67 471.36 -190.34 468.72 -190 466 C-189.34 466 -188.68 466 -188 466 C-187.67 464.02 -187.34 462.04 -187 460 C-186.34 460 -185.68 460 -185 460 C-184.67 457.36 -184.34 454.72 -184 452 C-183.34 452 -182.68 452 -182 452 C-181.67 449.69 -181.34 447.38 -181 445 C-180.34 445 -179.68 445 -179 445 C-179 443.35 -179 441.7 -179 440 C-178.01 439.67 -177.02 439.34 -176 439 C-176.020625 438.05125 -176.04125 437.1025 -176.0625 436.125 C-176 433 -176 433 -175 431 C-174.34 431 -173.68 431 -173 431 C-173 429.02 -173 427.04 -173 425 C-172.01 424.67 -171.02 424.34 -170 424 C-169.67 421.36 -169.34 418.72 -169 416 C-168.34 416 -167.68 416 -167 416 C-167 414.02 -167 412.04 -167 410 C-166.01 410 -165.02 410 -164 410 C-164 408.02 -164 406.04 -164 404 C-163.34 404 -162.68 404 -162 404 C-161.67 401.36 -161.34 398.72 -161 396 C-160.01 396 -159.02 396 -158 396 C-158 394.02 -158 392.04 -158 390 C-157.34 389.67 -156.68 389.34 -156 389 C-155.34227572 385.97065509 -155.34227572 385.97065509 -155 383 C-154.34 383 -153.68 383 -153 383 C-152.67 380.36 -152.34 377.72 -152 375 C-151.34 375 -150.68 375 -150 375 C-149.67 373.02 -149.34 371.04 -149 369 C-148.34 369 -147.68 369 -147 369 C-146.67 366.03 -146.34 363.06 -146 360 C-145.34 360 -144.68 360 -144 360 C-143.67 358.02 -143.34 356.04 -143 354 C-142.34 354 -141.68 354 -141 354 C-140.67 351.36 -140.34 348.72 -140 346 C-139.34 346 -138.68 346 -138 346 C-138 344.02 -138 342.04 -138 340 C-137.01 339.67 -136.02 339.34 -135 339 C-134.67 336.36 -134.34 333.72 -134 331 C-133.34 331 -132.68 331 -132 331 C-132 329.02 -132 327.04 -132 325 C-131.01 325 -130.02 325 -129 325 C-129 322.36 -129 319.72 -129 317 C-128.01 317 -127.02 317 -126 317 C-126 315.02 -126 313.04 -126 311 C-125.01 310.67 -124.02 310.34 -123 310 C-123 307.36 -123 304.72 -123 302 C-122.01 302 -121.02 302 -120 302 C-120 299.69 -120 297.38 -120 295 C-119.34 295 -118.68 295 -118 295 C-117.67 292.36 -117.34 289.72 -117 287 C-116.01 287 -115.02 287 -114 287 C-114 285.02 -114 283.04 -114 281 C-113.34 281 -112.68 281 -112 281 C-111.814375 279.0509375 -111.814375 279.0509375 -111.625 277.0625 C-111.4140625 274.84765625 -111.4140625 274.84765625 -111 273 C-110.34 272.67 -109.68 272.34 -109 272 C-108.34227572 268.97065509 -108.34227572 268.97065509 -108 266 C-107.34 266 -106.68 266 -106 266 C-105.67 263.36 -105.34 260.72 -105 258 C-104.34 258 -103.68 258 -103 258 C-102.67 256.02 -102.34 254.04 -102 252 C-101.34 252 -100.68 252 -100 252 C-99.67 249.03 -99.34 246.06 -99 243 C-98.34 243 -97.68 243 -97 243 C-96.505 240.03 -96.505 240.03 -96 237 C-95.34 237 -94.68 237 -94 237 C-94.020625 236.05125 -94.04125 235.1025 -94.0625 234.125 C-94 231 -94 231 -93 229 C-92.34 229 -91.68 229 -91 229 C-91 227.02 -91 225.04 -91 223 C-90.01 222.67 -89.02 222.34 -88 222 C-88.020625 221.05125 -88.04125 220.1025 -88.0625 219.125 C-88 216 -88 216 -87 214 C-86.34 214 -85.68 214 -85 214 C-85 212.02 -85 210.04 -85 208 C-84.01 208 -83.02 208 -82 208 C-82 205.03 -82 202.06 -82 199 C-81.01 199 -80.02 199 -79 199 C-79 197.02 -79 195.04 -79 193 C-78.01 193 -77.02 193 -76 193 C-76 190.36 -76 187.72 -76 185 C-75.01 185 -74.02 185 -73 185 C-73 182.69 -73 180.38 -73 178 C-72.34 178 -71.68 178 -71 178 C-70.67 175.36 -70.34 172.72 -70 170 C-69.01 170 -68.02 170 -67 170 C-67 168.02 -67 166.04 -67 164 C-66.34 164 -65.68 164 -65 164 C-64.67 161.36 -64.34 158.72 -64 156 C-63.34 156 -62.68 156 -62 156 C-61.67 153.69 -61.34 151.38 -61 149 C-60.34 149 -59.68 149 -59 149 C-58.67 147.02 -58.34 145.04 -58 143 C-57.34 143 -56.68 143 -56 143 C-55.67 140.36 -55.34 137.72 -55 135 C-54.34 135 -53.68 135 -53 135 C-52.67 132.03 -52.34 129.06 -52 126 C-51.34 126 -50.68 126 -50 126 C-49.67 124.02 -49.34 122.04 -49 120 C-48.34 120 -47.68 120 -47 120 C-47 118.02 -47 116.04 -47 114 C-46.01 114 -45.02 114 -44 114 C-44 111.03 -44 108.06 -44 105 C-43.01 105 -42.02 105 -41 105 C-41 102.36 -41 99.72 -41 97 C-40.01 97 -39.02 97 -38 97 C-38 95.02 -38 93.04 -38 91 C-37.01 91 -36.02 91 -35 91 C-35 88.03 -35 85.06 -35 82 C-34.01 82 -33.02 82 -32 82 C-32 80.02 -32 78.04 -32 76 C-31.01 76 -30.02 76 -29 76 C-29 73.03 -29 70.06 -29 67 C-28.01 67 -27.02 67 -26 67 C-26 65.02 -26 63.04 -26 61 C-25.34 61 -24.68 61 -24 61 C-23.67 58.36 -23.34 55.72 -23 53 C-22.34 53 -21.68 53 -21 53 C-20.67 50.69 -20.34 48.38 -20 46 C-19.34 46 -18.68 46 -18 46 C-17.67 43.36 -17.34 40.72 -17 38 C-16.34 38 -15.68 38 -15 38 C-15 36.35 -15 34.7 -15 33 C-14.01 32.67 -13.02 32.34 -12 32 C-11.67 29.03 -11.34 26.06 -11 23 C-10.34 23 -9.68 23 -9 23 C-9.0309375 21.576875 -9.0309375 21.576875 -9.0625 20.125 C-9 17 -9 17 -8 15 C-7.34 15 -6.68 15 -6 15 C-6 13.02 -6 11.04 -6 9 C-5.01 9 -4.02 9 -3 9 C-2.67 7.02 -2.34 5.04 -2 3 C-1.34 3 -0.68 3 0 3 C0 2.01 0 1.02 0 0 Z " fill="#000000" transform="translate(1746,1292)"/>
</svg>
